<svg width="926" height="926" viewBox="0 0 926 926" fill="none" xmlns="http://www.w3.org/2000/svg">
<path d="M724.986 161.662C764.41 172.222 804.93 148.834 815.516 109.41C776.092 98.8495 735.546 122.238 724.986 161.662Z" fill="white" fill-opacity="0.6"/>
<path d="M278.046 123.823C300.261 89.5873 290.535 43.8272 256.3 21.5859C234.059 55.8213 243.811 101.581 278.046 123.823Z" fill="white" fill-opacity="0.6"/>
<path d="M631.358 386.646C652.061 322.92 718.237 285.765 783.396 301.331C760.399 321.486 743.268 347.456 733.829 376.529L706.191 461.557C684.992 526.794 616.965 564.523 550.424 547.94C572.848 535.399 589.718 514.878 597.644 490.421L631.358 386.62V386.646Z" fill="white" fill-opacity="0.6"/>
<path d="M862.688 725.61L794.165 606.895C769.421 564.029 716.334 546.69 671.043 566.689C692.267 577.692 702.619 586.609 715.552 609.007L768.221 700.292C787.308 733.381 829.626 744.723 862.688 725.61Z" fill="white" fill-opacity="0.6"/>
<path d="M827.129 598.428C829.267 639.181 864.05 670.496 904.804 668.358C902.666 627.604 867.883 596.289 827.129 598.428Z" fill="white" fill-opacity="0.6"/>
<path d="M745.121 460.373C814.739 466.318 875.987 414.717 881.932 345.099C812.314 339.154 751.066 390.755 745.121 460.373Z" fill="white" fill-opacity="0.6"/>
<path d="M709.496 523.46C729.182 524.92 748.503 529.77 766.546 537.801L853.243 576.417C881.038 588.802 913.605 576.286 925.99 548.491L811.759 497.621C775.803 481.611 733.563 492.275 709.496 523.46Z" fill="white" fill-opacity="0.6"/>
<path d="M463.11 282.39C408.901 243.018 394.013 168.602 428.952 111.422C440.999 139.504 460.424 163.831 485.168 181.796L557.498 234.335C612.984 274.646 627.846 351.017 591.525 409.189C586.545 383.975 572.204 361.603 551.423 346.506L463.11 282.39Z" fill="white" fill-opacity="0.6"/>
<path d="M856.967 167.134L722.894 195.633C674.474 205.932 641.569 251.04 646.601 300.321C663.628 283.529 675.309 276.437 700.601 271.065L803.698 249.163C841.062 241.237 864.92 204.498 856.967 167.134Z" fill="white" fill-opacity="0.6"/>
<path d="M568.359 196.988C595.528 132.611 565.361 58.43 501.01 31.2607C473.84 95.6378 504.008 169.819 568.359 196.988Z" fill="white" fill-opacity="0.6"/>
<path d="M617.364 250.364C624.848 232.086 635.434 215.242 648.653 200.562L712.17 130.032C732.534 107.426 730.709 72.5905 708.102 52.2266L624.43 145.155C598.096 174.41 595.201 217.876 617.39 250.39" fill="white" fill-opacity="0.6"/>
<path d="M311.959 410.202C257.751 449.6 182.397 440.734 138.801 389.864C169.255 387.074 198.38 376.123 223.099 358.158L295.428 305.618C350.914 265.307 428.12 274.772 472.237 327.286C446.737 324.235 421.001 330.936 400.22 346.059L311.933 410.228L311.959 410.202Z" fill="white" fill-opacity="0.6"/>
<path d="M324.047 0L309.733 136.316C304.544 185.544 337.319 230.782 385.713 241.238C374.996 219.857 371.867 206.559 374.579 180.85L385.608 76.0322C389.598 38.0422 362.037 4.01542 324.047 0.0260742" fill="white" fill-opacity="0.6"/>
<path d="M263.263 283.711C210.437 237.977 130.546 243.739 84.8379 296.565C137.664 342.299 217.555 336.537 263.263 283.711Z" fill="white" fill-opacity="0.6"/>
<path d="M329.167 253.6C314.096 240.824 301.319 225.571 291.463 208.466L244.009 126.28C228.807 99.9192 195.093 90.8976 168.732 106.125L231.258 214.437C250.944 248.516 291.385 264.734 329.167 253.652" fill="white" fill-opacity="0.6"/>
<path d="M386.811 593.437C407.54 657.163 375.808 726.103 313.934 751.838C320.687 722.035 319.279 690.929 309.84 661.856L282.228 576.828C261.03 511.617 293.883 441.086 357.478 415.377C346.709 438.687 345.119 465.231 353.071 489.662L386.811 593.437Z" fill="white" fill-opacity="0.6"/>
<path d="M0.423828 455.174L125.632 510.92C170.871 531.05 224.01 513.867 248.884 471.079C225.261 474.651 211.624 473.53 188.027 462.996L91.7355 420.104C56.8483 404.564 15.964 420.26 0.423828 455.148" fill="white" fill-opacity="0.6"/>
<path d="M103.958 537.201C78.2746 505.469 31.7322 500.593 0 526.276C25.683 558.009 72.2254 562.885 103.958 537.201Z" fill="white" fill-opacity="0.6"/>
<path d="M251.433 600.672C191.619 636.785 172.403 714.538 208.515 774.326C268.329 738.213 287.546 660.46 251.433 600.672Z" fill="white" fill-opacity="0.6"/>
<path d="M243.161 528.7C226.369 539.104 207.908 546.509 188.587 550.602L95.7373 570.34C65.9606 576.676 46.9786 605.932 53.2886 635.682L175.602 609.686C214.114 601.499 242.013 568.046 243.134 528.674" fill="white" fill-opacity="0.6"/>
<path d="M584.218 578.9C651.229 578.9 707.002 630.345 712.347 697.147C686.09 681.502 656.079 673.237 625.494 673.237H536.086C467.51 673.237 410.591 620.202 405.793 551.783C424.645 569.227 449.389 578.926 475.072 578.926H584.192L584.218 578.9Z" fill="white" fill-opacity="0.6"/>
<path d="M333.299 903.654L425.002 801.808C458.142 765.017 458.22 709.166 425.21 672.271C421.299 695.869 416.006 708.462 398.719 727.679L328.188 805.98C302.636 834.374 304.93 878.101 333.299 903.654Z" fill="white" fill-opacity="0.6"/>
<path d="M443.286 830.517C405.192 845.144 386.131 887.88 400.785 926C438.879 911.373 457.914 868.611 443.286 830.517Z" fill="white" fill-opacity="0.6"/>
<path d="M549.258 709.841C565.111 777.894 633.112 820.186 701.166 804.333C685.313 736.28 617.311 693.987 549.258 709.841Z" fill="white" fill-opacity="0.6"/>
<path d="M478.219 695.479C482.912 714.67 484.268 734.512 482.182 754.172L472.248 848.561C469.067 878.833 491.021 905.924 521.293 909.105L534.356 784.731C538.476 745.568 515.27 708.699 478.193 695.453" fill="white" fill-opacity="0.6"/>
</svg>
