<svg width="24" height="36" viewBox="0 0 24 36" fill="none" xmlns="http://www.w3.org/2000/svg">
<rect x="0.5" y="0.5" width="23" height="35" rx="11.5" stroke="white" stroke-opacity="0.4"/>
<path d="M11.9966 26.7486C12.3701 26.7486 12.7167 26.5829 12.9769 26.426C13.2577 26.2568 13.5477 26.0291 13.8303 25.7794C14.3974 25.2784 15.0064 24.6247 15.5573 23.9903C16.1114 23.3522 16.6216 22.7163 16.9924 22.2413C17.1781 22.0034 17.3295 21.8049 17.4348 21.6655C17.4875 21.5958 17.5286 21.5408 17.5568 21.503L17.5892 21.4594L17.5978 21.4478L17.6007 21.4438C17.8464 21.1103 17.7755 20.6404 17.442 20.3947C17.1085 20.1491 16.639 20.2203 16.3934 20.5537L16.384 20.5665L16.3542 20.6065C16.3278 20.6419 16.2885 20.6944 16.2379 20.7614C16.1367 20.8954 15.9901 21.0875 15.8099 21.3184C15.4489 21.7808 14.956 22.3949 14.4247 23.0068C13.8901 23.6224 13.3313 24.2187 12.8372 24.6552C12.806 24.6828 12.7752 24.7096 12.7451 24.7354L12.7451 9.99854C12.7451 9.58432 12.4093 9.24854 11.9951 9.24854C11.5809 9.24854 11.2451 9.58432 11.2451 9.99854L11.2451 24.7329C11.2159 24.7078 11.1862 24.6819 11.1559 24.6552C10.6619 24.2187 10.103 23.6224 9.56844 23.0068C9.03709 22.3949 8.54419 21.7808 8.18322 21.3184C8.00305 21.0875 7.85645 20.8954 7.7552 20.7614C7.70459 20.6944 7.66535 20.6419 7.63895 20.6065L7.60918 20.5665L7.59976 20.5537C7.35409 20.2203 6.88461 20.1491 6.55113 20.3947C6.21763 20.6404 6.14674 21.1103 6.3924 21.4438L6.39536 21.4478L6.40391 21.4594L6.4363 21.503C6.46449 21.5408 6.50566 21.5958 6.55833 21.6655C6.66364 21.8049 6.81508 22.0034 7.00078 22.2413C7.37155 22.7163 7.88176 23.3522 8.43587 23.9903C8.98673 24.6247 9.59572 25.2784 10.1628 25.7794C10.4455 26.0291 10.7354 26.2568 11.0162 26.426C11.2749 26.582 11.6189 26.7466 11.9898 26.7485" fill="white" fill-opacity="0.4"/>
</svg>
