<svg width="186" height="41" viewBox="0 0 186 41" fill="none" xmlns="http://www.w3.org/2000/svg">
<g clip-path="url(#clip0_625_38207)">
<path d="M5.36426 12.5918L4.42773 13.5589L5.36426 14.5158L6.33119 13.5589L5.36426 12.5918Z" fill="#002F56"/>
<path d="M11.9677 12.4976H13.6142H14.2614C15.0211 12.4976 15.5763 12.271 15.9122 11.8238L16.5861 12.4976H17.8435C18.5746 12.4976 19.1382 12.3309 19.5188 12.0025C19.9011 11.6726 20.0917 11.1691 20.0852 10.5062V7.96616H16.8614C16.2207 7.96616 15.7337 8.08846 15.4142 8.32981C15.0936 8.57184 14.8816 8.95854 14.7839 9.47916L14.5432 10.827C14.493 11.103 14.4237 11.3056 14.3374 11.4289C14.2539 11.5481 14.1473 11.6059 14.0112 11.6059H13.6144H13.4449H11.9678H11.7984H10.3213H10.1518H8.6747H8.50526H8.26271C8.1452 11.6059 8.04374 11.592 7.96124 11.5644C7.88199 11.538 7.81349 11.4871 7.75747 11.4132C7.69923 11.3368 7.6461 11.227 7.59947 11.0868C7.55182 10.9438 7.49853 10.752 7.44131 10.5168L7.21021 9.56353C7.04846 8.89073 6.71829 8.36055 6.2291 7.98785C5.73992 7.6155 5.13475 7.42676 4.43035 7.42676C4.0942 7.42676 3.73073 7.49218 3.34966 7.62113C2.97048 7.74975 2.50828 7.96787 1.97605 8.26917L1.95743 8.27959V9.1893L2.01482 9.1495C2.17897 9.03592 2.35746 8.92814 2.54534 8.82924C2.73289 8.73086 2.92761 8.64221 3.1242 8.5662C3.32011 8.49036 3.52235 8.42939 3.72544 8.38498C3.92784 8.34091 4.12615 8.31853 4.31454 8.31853C4.60389 8.31853 4.85395 8.43417 5.05755 8.66254C5.26422 8.89432 5.42358 9.24208 5.53068 9.69608L5.75221 10.6396C5.78091 10.7665 5.81541 10.8871 5.85453 10.9986L3.8643 11.3947C3.54848 11.4591 3.24171 11.5555 2.95203 11.681C2.66132 11.8071 2.40067 11.9661 2.1776 12.1536C1.95299 12.3425 1.77177 12.5682 1.63905 12.8244C1.50531 13.082 1.4375 13.3809 1.4375 13.7127C1.4375 14.0378 1.50685 14.3382 1.64366 14.6057C1.78014 14.872 1.9629 15.1041 2.18682 15.2958C2.41109 15.4872 2.67396 15.6386 2.96843 15.7453C3.26307 15.8523 3.57342 15.9064 3.89095 15.9064C3.98779 15.9064 4.08293 15.9014 4.17414 15.8917C4.2645 15.882 4.35468 15.8707 4.44504 15.8579L4.46451 15.8552L4.7899 15.1719L4.72499 15.1788C4.60577 15.1912 4.4821 15.1912 4.3569 15.1788C4.23222 15.1661 4.10889 15.1378 3.99036 15.094C3.87284 15.0508 3.76165 14.9849 3.65951 14.8983C3.55702 14.8112 3.46718 14.7056 3.39254 14.5844C3.31755 14.4626 3.25897 14.3278 3.21849 14.1843C3.17783 14.0407 3.15734 13.8853 3.15734 13.7225C3.15734 13.3218 3.26477 12.9829 3.47691 12.7149C3.68854 12.4471 4.03767 12.2636 4.51456 12.1695L6.26395 11.8178C6.42485 12.0247 6.62845 12.1905 6.86945 12.3109C7.11712 12.4348 7.43362 12.4978 7.81025 12.4978H8.50543H8.67487H10.152H10.3214H11.7986L11.9677 12.4976ZM16.3037 10.7344L16.5121 9.55021C16.5616 9.28956 16.6405 9.10663 16.7468 9.00671C16.8515 8.90781 17.039 8.85777 17.3041 8.85777H18.3749V10.6025C18.3749 11.2776 18.116 11.6059 17.5834 11.6059H17.1844L16.3037 10.7344Z" fill="#002F56"/>
<path d="M24.0049 12.4983H25.482H25.6515H27.1286H27.298H28.7752H28.9446H30.2272C31.293 12.4983 31.8333 12.0131 31.8333 11.0559V8.05347H30.1327V11.6066H28.9444H28.775H27.2979H27.1284H25.6513H25.4819H24.0047H23.8353H22.8878V5.68457H21.1777V12.4983H23.8355H24.0049Z" fill="#002F56"/>
<path d="M31.9938 6.30876L31.0368 5.35156L30.0898 6.30876L31.0368 7.26561L31.9938 6.30876Z" fill="#002F56"/>
<path d="M31.873 13.8817L32.1762 14.5747L32.1964 14.5774C32.2859 14.5902 32.3759 14.6002 32.4635 14.6066C32.5517 14.6131 32.6415 14.6164 32.731 14.6164C33.0154 14.6164 33.2989 14.5769 33.5739 14.4994C33.8496 14.4215 34.1111 14.2932 34.3513 14.1181C34.5988 13.9357 34.7918 13.7096 34.9255 13.4457C35.0546 13.1902 35.1375 12.8716 35.172 12.4981H36.3727H36.5422H38.0193H38.1887H39.4713C40.5372 12.4981 41.0774 12.0128 41.0774 11.0556V8.05317H39.3769V11.6063H38.1886H38.0191H36.542H36.3726H35.194V7.94727H33.4839V12.2207C33.4839 12.667 33.3823 13.0491 33.1819 13.3558C33.0578 13.5418 32.8893 13.6867 32.6815 13.7859C32.4734 13.8851 32.2227 13.9197 31.9356 13.8884L31.873 13.8817Z" fill="#002F56"/>
<path d="M38.418 13.9632L39.3647 14.92L40.3218 13.9632L39.3647 12.9961L38.418 13.9632Z" fill="#002F56"/>
<path d="M3.25316 20.4291L3.26068 20.3862H1.62829L1.62163 20.4143C1.55091 20.7099 1.50206 20.9851 1.47627 21.2328C1.45048 21.4796 1.4375 21.6897 1.4375 21.8577C1.4375 22.1831 1.50514 22.4849 1.63871 22.755C1.77211 23.0252 1.97007 23.2611 2.22713 23.4563C2.483 23.6507 2.80292 23.8051 3.17784 23.9149C3.55139 24.0246 3.98557 24.0801 4.46878 24.0801H9.5511V19.5293H7.841V23.1885H4.63242C4.09455 23.1885 3.70904 23.0472 3.48614 22.769C3.26136 22.488 3.14743 22.0907 3.14743 21.5882C3.14743 21.3978 3.15717 21.2013 3.1763 21.0044C3.19543 20.8064 3.22139 20.6131 3.25316 20.4291Z" fill="#002F56"/>
<path d="M3.67578 18.3232L4.62256 19.2803L5.52782 18.3752L6.42336 19.2803L7.38038 18.3232L6.42336 17.3662L5.52782 18.2713L4.62256 17.3662L3.67578 18.3232Z" fill="#002F56"/>
<path d="M18.4692 25.598L19.3648 26.5031L20.3218 25.5461L19.3648 24.5889L18.4692 25.4941L17.5641 24.5889L16.6172 25.5461L17.5641 26.5031L18.4692 25.598Z" fill="#002F56"/>
<path d="M39.7825 25.5454L38.8154 24.5781L37.8789 25.5454L38.8154 26.5022L39.7825 25.5454Z" fill="#002F56"/>
<path d="M42.1488 23.3422C41.9982 23.3362 41.8733 23.2877 41.777 23.1972C41.6673 23.1 41.5918 22.9731 41.5522 22.8206L41.4321 22.3594L41.2104 21.4054C41.0422 20.7325 40.7055 20.2025 40.2098 19.8299C39.7145 19.4576 39.0996 19.2688 38.3824 19.2688C38.0462 19.2688 37.6828 19.3342 37.3019 19.4632C36.9225 19.5918 36.4605 19.8099 35.9282 20.1112L35.9096 20.1218V20.9784L35.9651 20.9448C36.3021 20.7413 36.6619 20.5576 37.0344 20.3982C37.4038 20.2404 37.7634 20.1604 38.1033 20.1604C38.3023 20.1604 38.4785 20.1949 38.6271 20.2629C38.7761 20.3314 38.9066 20.4271 39.0147 20.5478C39.124 20.6698 39.2176 20.8156 39.2928 20.9813C39.3683 21.1482 39.4291 21.3354 39.4735 21.5383L39.7046 22.482C39.7697 22.7485 39.8578 22.9856 39.9668 23.1876H35.5687H35.3991H34.1999C34.3669 22.8906 34.4516 22.521 34.4516 22.0881V19.5479H31.2279C30.5872 19.5479 30.1002 19.6702 29.7806 19.9116C29.46 20.1536 29.248 20.5403 29.1503 21.0609L28.9097 22.4087C28.8595 22.6848 28.7901 22.8873 28.7039 23.0107C28.6203 23.1299 28.5138 23.1876 28.3776 23.1876H27.9808H27.8114H26.281C26.5562 22.9441 26.7765 22.6662 26.9367 22.3602C27.112 22.026 27.2008 21.6622 27.2008 21.2792C27.2008 20.7296 26.9652 20.2933 26.5008 19.9825C26.0407 19.6748 25.3925 19.5189 24.574 19.5189H22.6683L21.7435 20.7586L21.8511 21.6975C21.9246 22.316 22.1345 22.8168 22.4758 23.1876H20.9901H20.8207H20.0099C19.7948 23.1876 19.7217 23.1466 19.6981 23.1121C19.6609 23.0578 19.6419 22.9724 19.6419 22.8585V20.116H17.9414V23.1876H16.7531H16.5837H15.1067H14.9371H13.4602H13.2907H12.3433V17.2656H10.6328V24.0794H13.2905H13.46H14.9369H15.1065H16.5835H16.7529H18.0355C18.4152 24.0794 18.729 24.0194 18.9685 23.9014C19.1816 24.0196 19.4411 24.0794 19.7398 24.0794H20.8203H20.9898H27.9807H28.6279C29.3816 24.0794 29.9367 23.8495 30.2787 23.3958L30.9623 24.0794H35.3991H42.184V23.3432L42.1488 23.3422ZM32.7415 20.4399V22.1847C32.7415 22.8597 32.4826 23.188 31.95 23.188H31.5512L30.6702 22.3071L30.8786 21.1323C30.9281 20.8717 31.007 20.6887 31.1132 20.5888C31.2179 20.4899 31.4055 20.4399 31.6706 20.4399H32.7415ZM25.4907 21.3375C25.4907 21.5257 25.465 21.7153 25.4148 21.9008C25.3643 22.0868 25.2941 22.2641 25.2061 22.4274C25.118 22.5908 25.0097 22.7423 24.8841 22.8773C24.7627 23.0079 24.6308 23.1178 24.4918 23.2042C24.3922 23.1731 24.2925 23.1229 24.1951 23.0552C24.0935 22.9845 23.9997 22.8841 23.9158 22.7569C23.8311 22.6284 23.7565 22.4677 23.6938 22.2791C23.6306 22.0897 23.5824 21.8591 23.551 21.5932L23.4207 20.4112H24.6124C24.8831 20.4112 25.0994 20.4932 25.2551 20.6551C25.4114 20.8174 25.4907 21.0469 25.4907 21.3375Z" fill="#002F56"/>
<path d="M4.19141 31.9194V32.5705H6.91268V31.8212C6.91268 31.5426 6.82318 31.3151 6.64639 31.1448C6.46995 30.975 6.2298 30.889 5.93243 30.889H5.85693L6.2228 30.1572H5.15834L4.43942 31.6461H5.60516C5.76043 31.6461 5.78041 31.7139 5.78041 31.773V31.9193H4.19141V31.9194Z" fill="#002F56"/>
<path d="M7.99506 34.7705H4.69032C4.38082 34.7705 4.12205 34.7387 3.92118 34.6758C3.72271 34.614 3.56591 34.5248 3.45522 34.4109C3.34437 34.2968 3.26648 34.1598 3.22361 34.003C3.17972 33.8433 3.15751 33.6669 3.15751 33.4781C3.15751 33.3077 3.17203 33.1183 3.20055 32.9152C3.22925 32.71 3.25982 32.5049 3.29193 32.2996L3.2986 32.2572H1.59772L1.59225 32.2875C1.54101 32.5754 1.50189 32.8337 1.47627 33.0552C1.45048 33.2766 1.4375 33.4674 1.4375 33.6228C1.4375 33.9229 1.5036 34.2024 1.63427 34.4534C1.76476 34.7049 1.96136 34.9232 2.21876 35.1022C2.47446 35.2801 2.79421 35.4197 3.16947 35.5169C3.54302 35.6134 3.98011 35.6624 4.46896 35.6624H8.07039C9.15534 35.6624 9.70551 35.1672 9.70551 34.1911V28.8486H7.99523L7.99506 34.7705Z" fill="#002F56"/>
<path d="M11.784 33.7382L11.5041 33.9534L12.1274 34.7327L12.8685 34.1719C13.4371 33.7391 13.7978 33.2728 13.9406 32.7858C14.0838 32.2973 13.9922 31.7309 13.6682 31.1024L12.698 29.2402L11.2168 30.0162L11.5236 30.5682L12.159 31.7717C12.347 32.1354 12.4188 32.4925 12.372 32.8331C12.3253 33.1713 12.1275 33.4759 11.784 33.7382Z" fill="#002F56"/>
<path d="M35.7648 34.7705H34.8174H34.648H33.1708H33.0014H31.5244H31.3548H30.1556C30.3226 34.4734 30.4074 34.1038 30.4074 33.671V31.1308H27.1836C26.5429 31.1308 26.0559 31.2531 25.7363 31.4944C25.4157 31.7364 25.2038 32.1231 25.1061 32.6438L24.8654 33.9916C24.8152 34.2676 24.7458 34.4702 24.6596 34.5935C24.5761 34.7127 24.4695 34.7705 24.3333 34.7705H23.9366H23.7671H22.29H22.1206H20.6434H20.474H18.9969H18.8274H17.3503H17.1809H16.3702C16.2859 34.7705 16.243 34.6598 16.243 34.4413V28.8486H14.5329V34.7706H10.7871V35.6624H14.6176C14.9915 35.6624 15.3114 35.5992 15.569 35.475C15.7768 35.5994 16.0462 35.6624 16.3702 35.6624H17.1809H17.3503H18.8274H18.9969H20.474H20.6434H22.1206H22.29H23.9366H24.5837C25.3375 35.6624 25.8926 35.4325 26.2346 34.9788L26.9181 35.6624H31.355H33.0016H33.171H34.6481H34.8176H35.8497C36.9284 35.6624 37.4753 35.1672 37.4753 34.1911V28.8486H35.7648V34.7705ZM28.6969 32.0224V33.7671C28.6969 34.4422 28.438 34.7705 27.9054 34.7705H27.5066L26.6256 33.8896L26.8339 32.7148C26.8835 32.4542 26.9624 32.2712 27.0686 32.1713C27.1733 32.0724 27.3609 32.0224 27.626 32.0224H28.6969Z" fill="#002F56"/>
<path d="M40.2687 28.8486H38.5586V35.6624H40.2687V28.8486Z" fill="#002F56"/>
<path d="M168.468 29.8676C168.183 30.0578 167.865 30.1176 167.537 30.1198C166.647 30.1256 165.755 30.1246 164.864 30.1202C164.583 30.1188 164.317 30.0501 164.09 29.8667C163.782 30.0706 163.437 30.1217 163.082 30.1221C161.05 30.1238 159.018 30.1229 156.986 30.1231C156.97 30.1231 156.954 30.1231 156.935 30.1231C156.41 29.6944 155.885 29.2651 155.358 28.8347C155.358 28.4864 155.36 28.1404 155.358 27.7945C155.356 27.4669 155.356 27.1398 155.429 26.8177C155.607 26.0379 156.104 25.5892 156.877 25.4404C157.097 25.3981 157.324 25.3769 157.548 25.3754C158.603 25.3687 160.539 25.3721 160.539 25.3721V25.6615V26.4417C160.539 26.4417 160.543 28.3151 160.543 29.2516C160.543 29.2837 160.543 29.3157 160.543 29.3546C161.404 29.3546 162.26 29.3546 163.126 29.3546C163.126 28.235 163.126 27.1145 163.126 25.9877C163.713 25.9877 164.633 25.9877 164.633 25.9877V26.4564V26.8786C164.633 26.8786 164.634 28.2044 164.635 28.8673C164.635 28.9368 164.64 29.0069 164.651 29.0755C164.679 29.2489 164.763 29.3283 164.937 29.3492C164.993 29.3558 165.05 29.3608 165.106 29.3609C165.884 29.3618 166.662 29.3615 167.439 29.3615C167.458 29.3615 167.477 29.3596 167.508 29.3579C167.508 28.2347 167.508 27.1125 167.508 25.9858C168.096 25.9858 169.01 25.9858 169.01 25.9858V26.2355V27.1101C169.01 27.1101 169.014 28.2801 169.015 28.8653C169.015 28.9348 169.02 29.0048 169.031 29.0735C169.058 29.2477 169.142 29.3278 169.315 29.349C169.376 29.3565 169.438 29.3611 169.5 29.3611C170.369 29.362 171.238 29.3616 172.107 29.3616C172.128 29.3616 172.148 29.3597 172.175 29.3586C172.17 29.3432 172.168 29.3326 172.163 29.3249C171.926 28.9927 171.822 28.6138 171.803 28.215C171.783 27.781 171.785 26.9113 171.785 26.9113V26.7543V26.2185V26.1336C171.785 26.1336 172.672 26.1336 173.228 26.1336C173.228 25.5072 173.228 24.8887 173.228 24.2658C173.257 24.2634 173.278 24.2602 173.298 24.2602C174.077 24.2604 174.856 24.251 175.633 24.2643C176.337 24.2764 177 24.4464 177.577 24.8682C178.195 25.3202 178.54 25.9363 178.626 26.6954C178.65 26.9053 178.648 27.1178 178.658 27.3234C178.183 27.7461 177.719 28.1597 177.249 28.5773C177.401 28.812 177.551 29.0415 177.773 29.2081C177.939 29.3307 178.132 29.3609 178.33 29.3608C178.556 29.3606 178.781 29.3533 179.007 29.3536C179.36 29.3541 179.714 29.3586 180.069 29.3615C180.095 29.3616 180.122 29.3615 180.158 29.3615C180.158 27.2098 180.158 25.0648 180.158 22.9141C180.744 22.9141 181.676 22.9141 181.676 22.9141V23.443V23.7654C181.676 23.7654 181.676 26.9698 181.678 28.5722C181.678 28.7877 181.664 29.0014 181.603 29.2089C181.453 29.7056 181.101 29.9755 180.607 30.0708C180.43 30.1051 180.245 30.1193 180.064 30.1205C179.289 30.1258 178.513 30.1149 177.738 30.1253C177.167 30.133 176.691 29.9311 176.284 29.5454C176.269 29.5307 176.252 29.5159 176.236 29.5013C176.233 29.4978 176.228 29.4959 176.214 29.4884C175.982 29.6971 175.746 29.9079 175.507 30.1227C175.481 30.1227 175.452 30.1227 175.423 30.1227C173.399 30.1227 171.376 30.1226 169.352 30.1229C169.081 30.1229 168.817 30.0884 168.58 29.9434C168.543 29.9212 168.508 29.8954 168.468 29.8676ZM159.025 26.1445C159.014 26.1392 159.009 26.1353 159.004 26.1353C158.583 26.1389 158.161 26.1261 157.741 26.1515C157.319 26.1771 157.039 26.4298 156.933 26.8411C156.897 26.9799 156.877 27.1265 156.876 27.2698C156.869 27.8305 156.873 28.3913 156.873 28.9522C156.873 28.9652 156.875 28.9782 156.876 28.9915C157.029 29.1165 157.18 29.2402 157.322 29.3555C157.898 29.3555 158.46 29.3555 159.026 29.3555C159.025 28.282 159.025 27.2146 159.025 26.1445ZM175.691 28.825C175.319 28.173 174.953 27.5313 174.588 26.8923C174.163 26.8923 173.739 26.8923 173.315 26.8923C173.315 26.9138 173.314 26.9297 173.314 26.9456C173.314 27.3721 173.31 27.7986 173.315 28.2251C173.315 28.3371 173.329 28.4504 173.35 28.5604C173.442 29.0458 173.742 29.3213 174.236 29.3504C174.516 29.3668 174.798 29.3533 175.094 29.3533C175.288 29.1811 175.492 29.0004 175.691 28.825ZM175.847 26.1339C176.173 26.6966 176.498 27.2571 176.827 27.8242C176.933 27.7318 177.034 27.6447 177.126 27.5641C177.126 27.2933 177.136 27.0327 177.124 26.7732C177.109 26.4636 177.041 26.1618 176.902 25.8818C176.672 25.4158 176.316 25.0942 175.785 25.0401C175.449 25.0056 175.105 25.0262 174.764 25.0227C174.76 25.0227 174.755 25.0281 174.752 25.0309C174.752 25.3971 174.752 25.7629 174.752 26.1339C175.119 26.1339 175.481 26.1339 175.847 26.1339Z" fill="#002F56"/>
<path d="M184.436 30.1193C184.436 30.1193 183.434 30.1193 182.932 30.1193C182.932 27.7176 182.932 25.3196 182.932 22.915C183.507 22.915 184.436 22.915 184.436 22.915V23.0095V24.1817V30.018V30.1193Z" fill="#002F56"/>
<path d="M165.033 23.387V23.8844V24.1692V24.3564C165.033 24.3564 164.604 24.3564 164.277 24.3564C164.277 24.1688 164.277 23.9826 164.277 23.7992C163.954 23.715 163.736 23.8749 163.73 24.1941C163.727 24.3764 163.729 24.5588 163.729 24.7444C163.806 24.815 163.883 24.8855 163.964 24.9598C164.388 24.9598 165.252 24.9598 165.252 24.9598V25.463H162.697V24.9597C162.697 24.9597 163.039 24.9597 163.23 24.9597C163.106 24.8491 163 24.7545 162.909 24.6732C162.909 24.4563 162.892 24.2537 162.912 24.0549C162.949 23.6964 163.181 23.467 163.537 23.4093C163.635 23.3935 163.735 23.3841 163.833 23.3835C164.233 23.3806 165.033 23.3824 165.033 23.3824V23.387Z" fill="#002F56"/>
<path d="M159.181 22.7261C159.474 23.019 159.769 23.3145 160.059 23.6044C159.767 23.8959 159.471 24.1928 159.179 24.4842C158.889 24.2035 158.591 23.9142 158.29 23.6225C158.001 23.9118 157.705 24.209 157.404 24.5105C157.107 24.2063 156.819 23.9113 156.523 23.6091C156.816 23.3099 157.105 23.0135 157.396 22.7158C157.694 23.0151 157.99 23.3111 158.279 23.6008C158.585 23.3037 158.885 23.0132 159.181 22.7261Z" fill="#002F56"/>
<path d="M166.266 31.8065C166.573 31.5104 166.871 31.2219 167.162 30.9414C167.442 31.2208 167.738 31.5175 168.028 31.807C167.743 32.0913 167.447 32.388 167.162 32.672C166.869 32.3893 166.571 32.1008 166.266 31.8065Z" fill="#002F56"/>
<path d="M169.816 31.8106C169.531 32.0946 169.235 32.3898 168.948 32.6765C168.654 32.3923 168.354 32.1025 168.049 31.8082C168.356 31.5106 168.654 31.2215 168.945 30.9395C169.226 31.2204 169.523 31.5171 169.816 31.8106Z" fill="#002F56"/>
<path d="M137.615 22.9131C137.615 22.9131 138.55 22.9131 139.133 22.9131C139.133 25.0625 139.133 27.2078 139.133 29.3576C140.151 29.3576 141.158 29.3576 142.175 29.3576C142.165 29.3427 142.16 29.3314 142.151 29.3239C141.746 28.9622 141.521 28.4993 141.428 27.9742C141.361 27.5973 141.328 27.2143 141.28 26.8339C141.271 26.7622 141.265 26.6903 141.257 26.6173C141.567 26.1972 141.876 25.7787 142.185 25.3602C142.492 25.3602 142.795 25.3587 143.099 25.3606C143.563 25.3635 144.027 25.3568 144.491 25.3764C145.01 25.3985 145.512 25.5064 145.966 25.7777C146.42 26.0494 146.715 26.4344 146.768 26.9723C146.818 27.4796 146.711 27.9589 146.467 28.4067C146.274 28.7603 146.017 29.0595 145.702 29.3086C145.687 29.3198 145.673 29.3316 145.645 29.3542C146.705 29.3542 147.747 29.3542 148.8 29.3542C148.8 27.2102 148.8 25.0652 148.8 22.9145C149.385 22.9145 150.318 22.9145 150.318 22.9145V23.3891V23.8213C150.318 23.8213 150.319 26.988 150.32 28.5714C150.32 28.7869 150.307 29.0006 150.245 29.2081C150.094 29.7081 149.741 29.9778 149.243 30.0724C149.076 30.1043 148.903 30.1209 148.732 30.1211C145.055 30.1238 141.379 30.1231 137.702 30.1231C137.678 30.1231 137.654 30.1231 137.617 30.1231C137.617 30.0823 137.617 30.0463 137.617 30.0104C137.617 27.9117 137.615 23.7145 137.615 23.7145V23.4948V22.9131ZM142.725 26.1304C142.727 26.1616 142.727 26.1879 142.729 26.2139C142.764 26.5285 142.794 26.8437 142.835 27.1574C142.874 27.4628 142.909 27.7705 142.976 28.0702C143.061 28.4516 143.226 28.8004 143.512 29.0788C143.666 29.2279 143.849 29.3238 144.058 29.3702C144.273 29.2486 144.454 29.0913 144.613 28.9067C145.063 28.3819 145.303 27.7814 145.256 27.0826C145.237 26.7841 145.123 26.526 144.879 26.3386C144.669 26.1779 144.426 26.1259 144.168 26.1261C143.712 26.1263 143.256 26.1259 142.8 26.1263C142.776 26.1263 142.753 26.1288 142.725 26.1304Z" fill="#002F56"/>
<path d="M132.611 30.1229C132.346 29.8559 132.078 29.5857 131.807 29.3123C131.752 29.385 131.703 29.4552 131.648 29.5194C131.354 29.8638 130.965 30.0286 130.527 30.0891C130.371 30.1108 130.212 30.1212 130.054 30.1214C128.281 30.1236 126.507 30.1227 124.733 30.1227C124.709 30.1227 124.685 30.1227 124.659 30.1227C124.133 29.693 123.608 29.2638 123.074 28.8277C123.083 28.27 123.077 27.7087 123.105 27.1494C123.125 26.7416 123.254 26.3599 123.52 26.0374C123.8 25.6984 124.173 25.5192 124.595 25.4413C124.815 25.4006 125.042 25.3767 125.265 25.3754C126.323 25.3685 128.265 25.3719 128.265 25.3719V25.7523V26.3457C128.265 26.3457 128.267 28.2833 128.267 29.252C128.267 29.2841 128.267 29.316 128.267 29.3615C128.3 29.3615 128.328 29.3615 128.356 29.3615C128.665 29.3615 128.973 29.3615 129.282 29.3615C129.447 29.3615 129.614 29.3608 129.779 29.3616C130.06 29.363 130.271 29.2388 130.382 28.9847C130.459 28.8074 130.513 28.6162 130.552 28.4261C130.667 27.8563 130.759 27.2816 130.881 26.7131C130.96 26.3442 131.137 26.0195 131.44 25.7783C131.691 25.5788 131.986 25.4823 132.298 25.4398C132.507 25.4112 132.72 25.3938 132.931 25.393C134.061 25.3885 136.178 25.3909 136.178 25.3909V25.4782V26.6933C136.178 26.6933 136.189 27.7668 136.172 28.3031C136.158 28.7623 136.025 29.1862 135.697 29.5275C135.409 29.8274 135.045 29.9856 134.644 30.0547C134.412 30.0945 134.175 30.1149 133.94 30.1202C133.501 30.1299 133.06 30.1229 132.611 30.1229ZM134.662 26.1653C134.149 26.1653 133.645 26.1553 133.141 26.1688C132.781 26.1783 132.526 26.3573 132.426 26.7179C132.388 26.8544 132.361 26.9943 132.335 27.1335C132.256 27.5518 132.179 27.9704 132.108 28.3561C132.444 28.7032 132.764 29.0344 133.07 29.3502C133.329 29.3502 133.569 29.3649 133.806 29.3468C134.16 29.3198 134.43 29.1476 134.557 28.8062C134.614 28.653 134.655 28.4842 134.657 28.3218C134.67 27.6165 134.665 26.9109 134.666 26.2053C134.666 26.1925 134.664 26.1795 134.662 26.1653ZM126.747 29.3577C126.747 28.2794 126.747 27.2102 126.747 26.1233C126.302 26.1334 125.862 26.1278 125.425 26.1588C125.116 26.1807 124.867 26.3411 124.736 26.6328C124.674 26.7698 124.62 26.9235 124.617 27.0708C124.604 27.7089 124.612 28.3474 124.612 29.0009C124.75 29.1141 124.904 29.2395 125.048 29.3579C125.621 29.3577 126.181 29.3577 126.747 29.3577Z" fill="#002F56"/>
<path d="M151.576 22.9111C152.158 22.9111 153.082 22.9111 153.082 22.9111V23.2777V23.8955C153.082 23.8955 153.085 27.9687 153.085 30.0054C153.085 30.0402 153.085 30.0751 153.085 30.1164C152.582 30.1164 152.082 30.1164 151.576 30.1164C151.576 27.7188 151.576 25.319 151.576 22.9111Z" fill="#002F56"/>
<path d="M125.124 22.7129C125.423 23.0142 125.717 23.3112 126.006 23.603C126.313 23.3054 126.612 23.0147 126.91 22.726C127.201 23.0179 127.497 23.314 127.788 23.605C127.494 23.8988 127.197 24.1958 126.905 24.4877C126.613 24.2033 126.315 23.9135 126.012 23.6194C125.722 23.9097 125.426 24.2071 125.125 24.5079C124.831 24.2062 124.542 23.9111 124.248 23.6096C124.541 23.3099 124.83 23.0135 125.124 22.7129Z" fill="#002F56"/>
<path d="M107.61 25.3599C107.767 25.3599 107.919 25.3591 108.072 25.3601C108.684 25.364 109.296 25.3563 109.908 25.3763C110.43 25.3934 110.935 25.5046 111.391 25.777C111.845 26.0484 112.14 26.4334 112.193 26.9713C112.244 27.4844 112.134 27.9685 111.885 28.4201C111.693 28.7677 111.439 29.0623 111.128 29.3079C111.113 29.3192 111.099 29.331 111.071 29.3537C112.13 29.3537 113.173 29.3537 114.225 29.3537C114.225 27.2103 114.225 25.0653 114.225 22.9143C114.811 22.9143 115.743 22.9143 115.743 22.9143V23.3888V23.821C115.743 23.821 115.744 26.945 115.746 28.5068C115.746 28.7876 115.729 29.0644 115.626 29.3293C115.623 29.3359 115.625 29.3445 115.625 29.3568C116.435 29.3568 117.243 29.3568 118.061 29.3568C118.061 27.2074 118.061 25.062 118.061 22.9126C118.644 22.9126 119.574 22.9126 119.574 22.9126V23.0954V24.1313C119.574 24.1313 119.577 27.0943 119.578 28.5757C119.578 28.7912 119.565 29.0047 119.502 29.2123C119.351 29.709 118.998 29.9768 118.505 30.0716C118.332 30.1047 118.153 30.1208 117.977 30.121C110.667 30.1233 103.356 30.123 96.0453 30.123C96.019 30.123 95.9928 30.123 95.9566 30.123C95.9566 30.0788 95.9566 30.0422 95.9566 30.0055C95.9566 27.9094 95.9551 23.7173 95.9551 23.7173V23.4899V22.9931V22.9121C95.9551 22.9121 96.8884 22.9121 97.4713 22.9121C97.4713 25.0596 97.4713 27.2053 97.4713 29.3561C98.5146 29.3561 99.5483 29.3561 100.569 29.3561C100.208 28.9868 99.8421 28.6119 99.4723 28.2332C99.4841 27.7807 99.4385 27.3233 99.5449 26.8733C99.7239 26.1164 100.213 25.6829 100.962 25.5367C101.195 25.4913 101.436 25.4706 101.673 25.4689C102.698 25.4617 104.591 25.4657 104.591 25.4657V25.5751V26.6946C104.591 26.6946 104.595 27.7787 104.595 28.3208C104.596 28.6665 104.609 29.0136 104.473 29.3535C105.519 29.3535 106.555 29.3535 107.597 29.3535C107.591 29.3429 107.586 29.3313 107.578 29.3241C107.172 28.9624 106.947 28.4997 106.854 27.9748C106.787 27.5951 106.754 27.2094 106.706 26.8265C106.697 26.7575 106.691 26.6881 106.683 26.6172C106.992 26.1976 107.301 25.7791 107.61 25.3599ZM109.483 29.3701C109.699 29.2488 109.882 29.0893 110.042 28.9024C110.489 28.3793 110.728 27.7809 110.682 27.0852C110.662 26.7803 110.546 26.5182 110.294 26.3303C110.088 26.1762 109.849 26.1258 109.597 26.1258C109.138 26.126 108.679 26.1256 108.22 26.126C108.197 26.126 108.174 26.1292 108.147 26.1313C108.161 26.2614 108.173 26.3841 108.187 26.5065C108.24 26.9539 108.283 27.4028 108.351 27.8477C108.414 28.2551 108.56 28.6344 108.826 28.9588C108.998 29.1689 109.214 29.3086 109.483 29.3701ZM100.998 28.5082C101.288 28.7979 101.566 29.0761 101.845 29.3549C102.132 29.3549 102.425 29.3612 102.716 29.3525C102.892 29.3474 103.004 29.2387 103.046 29.0717C103.069 28.9819 103.079 28.8865 103.079 28.7936C103.081 27.965 103.081 27.1363 103.08 26.3077C103.08 26.2795 103.078 26.2512 103.076 26.2223C103.058 26.2196 103.048 26.2165 103.038 26.2165C102.66 26.2189 102.281 26.211 101.904 26.2268C101.433 26.2464 101.117 26.5188 101.04 26.9851C101 27.229 101.006 27.4812 101 27.7298C100.994 27.9951 100.998 28.2605 100.998 28.5082Z" fill="#002F56"/>
<path d="M91.5254 32.0861C91.4445 31.9 91.3656 31.7187 91.2793 31.5206C91.4018 31.5206 91.5118 31.5321 91.6187 31.5187C92.1755 31.4492 92.5549 31.1363 92.7916 30.6394C92.9228 30.3643 92.9826 30.0691 92.9844 29.7663C92.9899 28.8325 92.9879 28.2007 92.9884 27.2669C92.9887 26.6711 92.9884 26.0753 92.9884 25.4797C92.9884 25.448 92.9884 25.416 92.9884 25.3779C93.5717 25.3779 94.4995 25.3779 94.4995 25.3779V25.6159C94.4995 25.6159 94.4973 26.1749 94.4995 26.4752C94.5082 27.6505 94.5053 28.5238 94.4995 29.6991C94.4973 30.1492 94.4189 30.5873 94.1905 30.9831C93.8692 31.5397 93.3722 31.8641 92.7607 32.0233C92.3562 32.1283 91.9454 32.1452 91.5254 32.0861Z" fill="#002F56"/>
<path d="M102.518 23.5804C102.221 23.8695 101.923 24.1587 101.632 24.4407C101.34 24.1584 101.042 23.8702 100.742 23.5805C101.05 23.2842 101.35 22.995 101.664 22.6918C101.929 22.9663 102.219 23.2666 102.502 23.5604C102.814 23.2574 103.108 22.9716 103.406 22.6826C103.693 22.9793 103.985 23.2813 104.267 23.5734C103.994 23.8555 103.702 24.1574 103.417 24.4511C103.112 24.1556 102.813 23.8654 102.518 23.5804Z" fill="#002F56"/>
<path d="M93.7857 37.035L93.0403 35.9195H92.1076V37.035H91.4824V33.6689H92.9539C93.9782 33.6689 94.4061 34.0104 94.4061 34.7653C94.4061 35.3232 94.1801 35.6694 93.7041 35.8233L94.5216 37.035H93.7857ZM92.1076 35.3809H92.9876C93.5405 35.3809 93.7569 35.2175 93.7569 34.799C93.7569 34.3807 93.5405 34.2171 92.9876 34.2171H92.1076V35.3809Z" fill="#002F56"/>
<path d="M97.7464 34.227H95.7461V35.0636H97.5974V35.5973H95.7461V36.4773H97.785V37.035H95.1211V33.6689H97.7465L97.7464 34.227Z" fill="#002F56"/>
<path d="M100.853 36.2946H99.2129L98.9099 37.035H98.2031L99.6217 33.6689H100.444L101.867 37.035H101.155L100.853 36.2946ZM100.636 35.7751L100.03 34.2989L99.4246 35.7751H100.636Z" fill="#002F56"/>
<path d="M103.102 36.4734H104.881V37.036H102.477V33.6699H103.102V36.4734Z" fill="#002F56"/>
<path d="M109.317 34.227H107.316V35.0636H109.168V35.5973H107.316V36.4773H109.355V37.035H106.691V33.6689H109.317L109.317 34.227Z" fill="#002F56"/>
<path d="M112.375 34.4826C112.014 34.2903 111.572 34.1652 111.231 34.1652C110.87 34.1652 110.625 34.2998 110.625 34.574C110.625 34.7519 110.721 34.8288 111.255 34.9731L111.62 35.0741C112.366 35.2809 112.712 35.4635 112.731 36.0455C112.731 36.7186 112.193 37.0841 111.342 37.0841C110.789 37.0841 110.226 36.9254 109.803 36.637L110.091 36.1657C110.49 36.4014 110.986 36.536 111.394 36.536C111.803 36.536 112.072 36.3919 112.072 36.0793C112.072 35.8485 111.943 35.7812 111.462 35.661L111.082 35.5648C110.284 35.3629 109.966 35.1658 109.947 34.6175C109.947 34.2906 110.072 34.0453 110.317 33.8769C110.563 33.7087 110.885 33.6221 111.279 33.6221C111.765 33.6221 112.27 33.7567 112.65 33.9828L112.375 34.4826Z" fill="#002F56"/>
<path d="M115.908 34.218H114.831V37.036H114.206V34.218H113.129V33.6699H115.908V34.218Z" fill="#002F56"/>
<path d="M118.534 36.2954H116.894L116.592 37.036H115.885L117.303 33.6699H118.126L119.549 37.036H118.837L118.534 36.2954ZM118.318 35.776L117.712 34.2997L117.106 35.776H118.318Z" fill="#002F56"/>
<path d="M122.313 34.218H121.235V37.036H120.61V34.218H119.533V33.6699H122.313V34.218Z" fill="#002F56"/>
<path d="M125.538 34.227H123.537V35.0636H125.389V35.5973H123.537V36.4773H125.576V37.035H122.912V33.6689H125.538V34.227Z" fill="#002F56"/>
<path d="M130.013 34.5204C129.777 34.3088 129.479 34.1983 129.152 34.1983C128.517 34.1983 127.984 34.6791 127.984 35.3524C127.984 35.9824 128.479 36.4968 129.118 36.4968C129.455 36.4968 129.739 36.415 129.965 36.2468V35.6746H129.152V35.1697H130.556V36.5689C130.172 36.896 129.657 37.0835 129.118 37.0835C128.152 37.1027 127.301 36.2854 127.325 35.3524C127.305 34.3378 128.195 33.6068 129.152 33.6213C129.628 33.6213 130.075 33.7897 130.421 34.0973L130.013 34.5204Z" fill="#002F56"/>
<path d="M134.051 34.227H132.051V35.0636H133.902V35.5973H132.051V36.4773H134.09V37.035H131.426V33.6689H134.051V34.227Z" fill="#002F56"/>
<path d="M137.815 33.6699V37.036H137.157L135.377 34.6172V37.036H134.762V33.6699H135.421L137.205 36.0887V33.6699H137.815Z" fill="#002F56"/>
<path d="M141.344 34.227H139.344V35.0636H141.195V35.5973H139.344V36.4773H141.383V37.035H138.719V33.6689H141.344V34.227Z" fill="#002F56"/>
<path d="M144.358 37.035L143.613 35.9195H142.68V37.035H142.055V33.6689H143.526C144.55 33.6689 144.978 34.0104 144.978 34.7653C144.978 35.3232 144.752 35.6694 144.276 35.8233L145.094 37.035H144.358ZM142.68 35.3809H143.56C144.113 35.3809 144.329 35.2175 144.329 34.799C144.329 34.3807 144.113 34.2171 143.56 34.2171H142.68V35.3809Z" fill="#002F56"/>
<path d="M148.122 36.2954H146.482L146.179 37.036H145.473L146.891 33.6699H147.713L149.137 37.036H148.425L148.122 36.2954ZM147.906 35.776L147.3 34.2997L146.694 35.776H147.906Z" fill="#002F56"/>
<path d="M150.371 36.4734H152.15V37.036H149.746V33.6699H150.371V36.4734Z" fill="#002F56"/>
<path d="M156.319 36.2954H154.68L154.377 37.036H153.67L155.088 33.6699H155.911L157.334 37.036H156.622L156.319 36.2954ZM156.103 35.776L155.497 34.2997L154.891 35.776H156.103Z" fill="#002F56"/>
<path d="M160.814 35.5155C160.814 36.5205 160.276 37.0832 159.314 37.0832C158.352 37.0832 157.809 36.5158 157.809 35.5155V33.6689H158.434V35.5155C158.434 36.1502 158.756 36.506 159.314 36.506C159.872 36.506 160.189 36.1502 160.189 35.5155V33.6689H160.814V35.5155Z" fill="#002F56"/>
<path d="M164.203 34.218H163.126V37.036H162.501V34.218H161.424V33.6699H164.203V34.218Z" fill="#002F56"/>
<path d="M167.856 37.035H167.231V35.6213H165.428V37.035H164.803V33.6689H165.428V35.0586H167.231V33.6689H167.856V37.035Z" fill="#002F56"/>
<path d="M170.429 37.0837C169.462 37.1028 168.611 36.2855 168.635 35.3525C168.611 34.4196 169.462 33.6021 170.429 33.6214C171.391 33.6021 172.232 34.4196 172.213 35.3525C172.232 36.2855 171.391 37.1028 170.429 37.0837ZM170.429 36.4969C171.064 36.4969 171.559 35.9825 171.559 35.3525C171.559 34.7226 171.064 34.2081 170.429 34.2081C169.789 34.2081 169.294 34.7226 169.294 35.3525C169.294 35.9825 169.789 36.4969 170.429 36.4969Z" fill="#002F56"/>
<path d="M175.294 37.035L174.548 35.9195H173.615V37.035H172.99V33.6689H174.463C175.486 33.6689 175.914 34.0104 175.914 34.7653C175.914 35.3232 175.689 35.6694 175.212 35.8233L176.031 37.035H175.294ZM173.615 35.3809H174.497C175.048 35.3809 175.265 35.2175 175.265 34.799C175.265 34.3807 175.048 34.2171 174.497 34.2171H173.615V35.3809Z" fill="#002F56"/>
<path d="M177.254 37.035H176.629V33.6689H177.254V37.035Z" fill="#002F56"/>
<path d="M180.642 34.218H179.566V37.036H178.941V34.218H177.863V33.6699H180.642V34.218Z" fill="#002F56"/>
<path d="M184.437 33.6699L183.043 35.8434V37.036H182.413V35.8482L181.018 33.6699H181.769L182.731 35.1894L183.698 33.6699H184.437Z" fill="#002F56"/>
<path d="M113.05 13.6397V11.5909H107.947V7.37204H115V5.28906H105.07V20.0608H116.52V17.9778H107.947V13.6397H113.05Z" fill="#002F56"/>
<path d="M133.702 13.617L138.299 20.0416H141.298V5.29395H134.273L130.436 13.1964L127.135 20.0599H130.259L133.515 13.3551L133.702 13.617ZM136.413 7.35506H138.483V15.8871L134.945 10.6361L136.413 7.35506Z" fill="#002F56"/>
<path d="M119.187 5.62003C118.197 5.98897 117.35 6.51505 116.67 7.18376C115.991 7.85075 115.467 8.66737 115.112 9.61124C114.753 10.5657 114.57 11.6454 114.57 12.8203C114.57 13.9147 114.751 14.9209 115.108 15.8111C115.462 16.6947 115.978 17.4618 116.641 18.0912C117.305 18.7237 118.13 19.2242 119.092 19.5789C120.061 19.9364 121.184 20.1177 122.428 20.1177C123.258 20.1177 125.671 20.0842 126.831 20.0681L127.138 20.064V11.1492H121.787V13.4554H124.658V17.7476L124.342 17.8596C124.101 17.9454 123.952 17.9438 123.24 17.9361L123.206 17.9358C123.088 17.9346 123.002 17.9336 122.942 17.9336C121.283 17.9336 119.872 17.4181 118.864 16.443C117.924 15.5349 117.447 14.1953 117.447 12.461C117.447 11.4409 117.595 10.965 117.838 10.3028C118.103 9.58118 118.487 8.97482 118.982 8.5005C119.475 8.02719 120.075 7.67414 120.764 7.45141C121.432 7.23602 122.188 7.12671 123.012 7.12671C124.288 7.12671 125.096 7.32621 126.242 7.74451L126.589 5.81116C125.447 5.32266 124.453 5.05859 122.638 5.05859C121.348 5.05859 120.187 5.2475 119.187 5.62003Z" fill="#002F56"/>
<path d="M97.3872 14.7413L101.602 20.0608H105.071L100.673 14.7435L103.268 11.8582V8.56101C103.268 6.75679 101.8 5.28906 99.9964 5.28906H92.1309V20.0608H95.0077V14.6685H97.3298L97.3872 14.7413ZM94.9218 12.4489V7.08899H98.4035C99.7203 7.08899 100.673 8.10377 100.673 8.78784V10.9892L99.3781 12.4489H94.9218Z" fill="#002F56"/>
<path d="M63.2988 25.3242L75.1619 37.1873V32.4589L67.9847 25.3242H63.2988Z" fill="#005257"/>
<path d="M76.3438 32.4589V37.1873L88.207 25.3242H83.521L76.3438 32.4589Z" fill="#005257"/>
<path d="M75.1629 12.8361V12.586V9.55027V9.54344V7.90012L70.3958 3.1618V3.17222L65.7097 3.13379L67.3962 4.82032L68.7581 6.18216L69.7532 7.18069L71.115 8.5391L72.1135 9.53763L72.1194 9.54344H65.1276L65.1346 9.55027L61.793 12.8361H75.1629Z" fill="#10CFC9"/>
<path d="M67.3975 21.71L68.7593 20.3482L69.7578 19.3531L71.1162 17.9912L72.1149 16.9925L73.4766 15.6309L75.1631 13.9443H70.4771L65.7388 18.7105H65.7494L65.7109 23.3965L67.3975 21.71Z" fill="#00A887"/>
<path d="M86.3721 9.55027L86.3791 9.54344H79.6818L79.3865 9.54395L79.3928 9.53763L80.3913 8.5391L81.7532 7.18069L82.7484 6.18216L84.1101 4.82032L85.7966 3.13379L81.1108 3.17222V3.1618L76.3438 7.90012V9.55027V12.586V12.8361H89.7137L86.3721 9.55027Z" fill="#10CFC9"/>
<path d="M79.3255 16.9925L80.3242 17.9912L81.6827 19.3531L82.6812 20.3482L84.043 21.71L85.7295 23.3965L85.6913 18.7105H85.7017L80.9634 13.9443H76.2773L77.9639 15.6309L79.3255 16.9925Z" fill="#00A488"/>
<path d="M77.3687 17.0059H74.12L72.2148 18.9503H79.2906L77.3687 17.0059Z" fill="#00848D"/>
<path d="M77.3687 20.0986H74.12L72.2148 22.0431H79.2906L77.3687 20.0986Z" fill="#00848D"/>
<path d="M77.3687 23.1699H74.12L72.2148 25.1144H79.2906L77.3687 23.1699Z" fill="#00848D"/>
<path d="M72.2148 28.1972H79.2906L77.3687 26.2529H74.12L72.2148 28.1972Z" fill="#00848D"/>
<path d="M52.0194 2.85742H51.7109V37.0412H52.0194V2.85742Z" fill="#005257"/>
</g>
<defs>
<clipPath id="clip0_625_38207">
<rect width="183.103" height="34.5027" fill="white" transform="translate(1.37891 2.75879)"/>
</clipPath>
</defs>
</svg>
