<svg width="200" height="40" viewBox="0 0 200 40" fill="none" xmlns="http://www.w3.org/2000/svg">
<path d="M181.845 29.735C181.558 29.9269 181.238 29.9872 180.907 29.9895C180.01 29.9953 179.112 29.9943 178.214 29.9898C177.931 29.9885 177.663 29.9192 177.435 29.7341C177.124 29.9399 176.777 29.9914 176.418 29.9917C174.372 29.9935 172.325 29.9926 170.278 29.9928C170.262 29.9928 170.246 29.9928 170.226 29.9928C169.697 29.5603 169.168 29.1273 168.637 28.6931C168.637 28.3418 168.639 27.9927 168.637 27.6438C168.636 27.3133 168.635 26.9834 168.709 26.6584C168.888 25.8719 169.389 25.4193 170.168 25.2692C170.389 25.2265 170.618 25.2051 170.844 25.2035C171.906 25.1968 173.857 25.2003 173.857 25.2003V25.4921V26.2792C173.857 26.2792 173.861 28.169 173.861 29.1137C173.861 29.1461 173.861 29.1783 173.861 29.2176C174.728 29.2176 175.591 29.2176 176.463 29.2176C176.463 28.0882 176.463 26.9579 176.463 25.8212C177.055 25.8212 177.981 25.8212 177.981 25.8212V26.294V26.7199C177.981 26.7199 177.982 28.0573 177.983 28.726C177.983 28.7961 177.988 28.8668 177.999 28.9361C178.027 29.1109 178.112 29.1911 178.288 29.2121C178.344 29.2188 178.401 29.2238 178.458 29.224C179.241 29.2248 180.025 29.2245 180.809 29.2245C180.827 29.2245 180.846 29.2226 180.877 29.2209C180.877 28.0878 180.877 26.9558 180.877 25.8193C181.47 25.8193 182.391 25.8193 182.391 25.8193V26.0712V26.9534C182.391 26.9534 182.395 28.1337 182.396 28.724C182.396 28.7941 182.401 28.8647 182.412 28.934C182.439 29.1097 182.524 29.1905 182.698 29.2119C182.76 29.2195 182.822 29.2241 182.884 29.2241C183.76 29.225 184.636 29.2247 185.511 29.2247C185.532 29.2247 185.553 29.2228 185.58 29.2216C185.574 29.206 185.573 29.1954 185.567 29.1876C185.329 28.8525 185.223 28.4703 185.205 28.068C185.185 27.6302 185.186 26.7528 185.186 26.7528V26.5945V26.054V25.9684C185.186 25.9684 186.08 25.9684 186.641 25.9684C186.641 25.3365 186.641 24.7127 186.641 24.0843C186.67 24.0819 186.691 24.0786 186.712 24.0786C187.496 24.0788 188.28 24.0693 189.064 24.0827C189.772 24.095 190.44 24.2664 191.021 24.692C191.644 25.1479 191.992 25.7694 192.078 26.5351C192.102 26.7468 192.101 26.9612 192.111 27.1686C191.632 27.595 191.164 28.0122 190.692 28.4335C190.845 28.6702 190.995 28.9018 191.22 29.0698C191.386 29.1935 191.581 29.224 191.781 29.2238C192.008 29.2236 192.235 29.2162 192.462 29.2166C192.819 29.2171 193.175 29.2216 193.532 29.2245C193.559 29.2247 193.585 29.2245 193.622 29.2245C193.622 27.054 193.622 24.8903 193.622 22.7207C194.212 22.7207 195.151 22.7207 195.151 22.7207V23.2543V23.5794C195.151 23.5794 195.152 26.8119 195.153 28.4283C195.153 28.6457 195.14 28.8613 195.077 29.0706C194.927 29.5717 194.572 29.8439 194.075 29.94C193.896 29.9747 193.71 29.989 193.528 29.9902C192.746 29.9955 191.965 29.9845 191.183 29.995C190.61 30.0028 190.13 29.7991 189.719 29.41C189.703 29.3952 189.687 29.3802 189.671 29.3656C189.667 29.362 189.662 29.3601 189.649 29.3525C189.415 29.563 189.178 29.7757 188.937 29.9924C188.911 29.9924 188.881 29.9924 188.852 29.9924C186.813 29.9924 184.775 29.9922 182.736 29.9926C182.462 29.9926 182.197 29.9578 181.957 29.8115C181.92 29.7891 181.886 29.7633 181.845 29.735ZM172.332 25.9794C172.32 25.9741 172.316 25.9701 172.311 25.9701C171.887 25.9737 171.462 25.9608 171.039 25.9865C170.613 26.0123 170.331 26.2671 170.224 26.682C170.188 26.8221 170.168 26.9699 170.166 27.1145C170.16 27.6802 170.163 28.2458 170.164 28.8117C170.164 28.8247 170.165 28.8378 170.167 28.8513C170.321 28.9774 170.474 29.1021 170.616 29.2184C171.196 29.2184 171.763 29.2184 172.332 29.2184C172.332 28.1357 172.332 27.0589 172.332 25.9794ZM189.122 28.6833C188.747 28.0256 188.378 27.3783 188.011 26.7337C187.582 26.7337 187.156 26.7337 186.729 26.7337C186.728 26.7554 186.726 26.7715 186.726 26.7875C186.726 27.2177 186.724 27.6479 186.728 28.0782C186.729 28.1912 186.742 28.3054 186.763 28.4164C186.855 28.9061 187.159 29.184 187.656 29.2133C187.938 29.2298 188.222 29.2162 188.519 29.2162C188.715 29.0427 188.922 28.8602 189.122 28.6833ZM189.279 25.9689C189.608 26.5364 189.935 27.1019 190.266 27.674C190.374 27.5807 190.475 27.4929 190.568 27.4115C190.568 27.1385 190.579 26.8755 190.566 26.6138C190.55 26.3014 190.482 25.997 190.342 25.7146C190.11 25.2445 189.753 24.9201 189.217 24.8655C188.877 24.8307 188.532 24.8515 188.189 24.8479C188.184 24.8479 188.18 24.8534 188.176 24.8562C188.176 25.2256 188.176 25.5947 188.176 25.9689C188.546 25.9689 188.911 25.9689 189.279 25.9689Z" fill="#002F56"/>
<path d="M197.93 29.9879C197.93 29.9879 196.92 29.9879 196.414 29.9879C196.414 27.5652 196.414 25.1463 196.414 22.7207C196.995 22.7207 197.93 22.7207 197.93 22.7207V22.816V23.9985V29.8858V29.9879Z" fill="#002F56"/>
<path d="M178.384 23.1976V23.6994V23.9866V24.1754C178.384 24.1754 177.953 24.1754 177.623 24.1754C177.623 23.9863 177.623 23.7984 177.623 23.6134C177.297 23.5285 177.078 23.6897 177.072 24.0118C177.068 24.1956 177.071 24.3796 177.071 24.5669C177.148 24.6381 177.226 24.7092 177.307 24.7842C177.734 24.7842 178.605 24.7842 178.605 24.7842V25.2918H176.031V24.784C176.031 24.784 176.375 24.784 176.568 24.784C176.443 24.6725 176.336 24.5771 176.244 24.4951C176.244 24.2762 176.227 24.0719 176.248 23.8713C176.285 23.5097 176.519 23.2783 176.878 23.22C176.976 23.2042 177.076 23.1947 177.176 23.194C177.578 23.1911 178.384 23.193 178.384 23.193V23.1976Z" fill="#002F56"/>
<path d="M172.49 22.5318C172.785 22.8273 173.082 23.1254 173.375 23.4178C173.081 23.7119 172.782 24.0114 172.488 24.3053C172.196 24.0222 171.895 23.7303 171.592 23.436C171.301 23.7279 171.003 24.0277 170.7 24.3318C170.4 24.025 170.11 23.7274 169.812 23.4226C170.107 23.1207 170.398 22.8218 170.691 22.5215C170.992 22.8234 171.29 23.1219 171.581 23.4142C171.89 23.1144 172.191 22.8213 172.49 22.5318Z" fill="#002F56"/>
<path d="M179.625 31.6911C179.934 31.3923 180.235 31.1013 180.528 30.8184C180.81 31.1002 181.109 31.3995 181.4 31.6916C181.114 31.9783 180.815 32.2776 180.528 32.5641C180.233 32.2789 179.932 31.9881 179.625 31.6911Z" fill="#002F56"/>
<path d="M183.204 31.6932C182.917 31.9797 182.619 32.2774 182.33 32.5667C182.033 32.28 181.731 31.9876 181.424 31.6908C181.733 31.3906 182.034 31.0989 182.327 30.8145C182.61 31.0977 182.908 31.397 183.204 31.6932Z" fill="#002F56"/>
<path d="M150.764 22.7256C150.764 22.7256 151.706 22.7256 152.293 22.7256C152.293 24.8938 152.293 27.0579 152.293 29.2264C153.318 29.2264 154.333 29.2264 155.357 29.2264C155.347 29.2114 155.342 29.2001 155.334 29.1925C154.925 28.8276 154.699 28.3606 154.605 27.831C154.538 27.4507 154.504 27.0644 154.456 26.6807C154.447 26.6083 154.441 26.5358 154.433 26.4622C154.745 26.0384 155.056 25.6163 155.367 25.1941C155.677 25.1941 155.982 25.1926 156.288 25.1945C156.756 25.1974 157.224 25.1907 157.691 25.2105C158.214 25.2327 158.719 25.3416 159.176 25.6152C159.634 25.8893 159.931 26.2777 159.984 26.8203C160.035 27.332 159.927 27.8155 159.681 28.2672C159.487 28.6239 159.228 28.9258 158.91 29.177C158.896 29.1884 158.882 29.2002 158.853 29.223C159.921 29.223 160.971 29.223 162.032 29.223C162.032 27.0603 162.032 24.8966 162.032 22.727C162.621 22.727 163.561 22.727 163.561 22.727V23.2058V23.6417C163.561 23.6417 163.562 26.8361 163.563 28.4333C163.563 28.6508 163.55 28.8663 163.487 29.0757C163.336 29.58 162.979 29.8521 162.478 29.9475C162.31 29.9797 162.135 29.9964 161.963 29.9966C158.259 29.9994 154.555 29.9987 150.851 29.9987C150.827 29.9987 150.803 29.9987 150.765 29.9987C150.765 29.9575 150.765 29.9211 150.765 29.885C150.765 27.7679 150.764 23.534 150.764 23.534V23.3124V22.7256ZM155.911 25.9708C155.913 26.0024 155.913 26.0289 155.916 26.0551C155.95 26.3725 155.981 26.6904 156.022 27.0069C156.062 27.3149 156.096 27.6253 156.164 27.9276C156.25 28.3124 156.416 28.6642 156.704 28.9451C156.859 29.0955 157.043 29.1922 157.254 29.239C157.471 29.1163 157.653 28.9577 157.813 28.7714C158.267 28.2421 158.508 27.6363 158.462 26.9314C158.442 26.6302 158.327 26.3699 158.081 26.1809C157.87 26.0187 157.625 25.9664 157.365 25.9665C156.906 25.9667 156.446 25.9664 155.986 25.9667C155.963 25.9669 155.939 25.9693 155.911 25.9708Z" fill="#002F56"/>
<path d="M145.723 29.9965C145.456 29.7272 145.186 29.4546 144.913 29.1788C144.857 29.2522 144.809 29.323 144.753 29.3878C144.456 29.7351 144.065 29.9014 143.624 29.9624C143.467 29.9843 143.306 29.9948 143.147 29.9949C141.36 29.9972 139.573 29.9963 137.786 29.9963C137.762 29.9963 137.738 29.9963 137.712 29.9963C137.182 29.5628 136.653 29.1298 136.115 28.6899C136.124 28.1274 136.118 27.5612 136.146 26.9969C136.166 26.5857 136.296 26.2006 136.564 25.8753C136.846 25.5333 137.222 25.3525 137.647 25.2739C137.869 25.2329 138.097 25.2088 138.323 25.2074C139.388 25.2005 141.344 25.204 141.344 25.204V25.5877V26.1863C141.344 26.1863 141.347 28.1408 141.347 29.1179C141.347 29.1503 141.347 29.1825 141.347 29.2284C141.38 29.2284 141.408 29.2284 141.436 29.2284C141.747 29.2284 142.058 29.2284 142.369 29.2284C142.536 29.2284 142.703 29.2277 142.87 29.2286C143.153 29.2299 143.366 29.1047 143.478 28.8483C143.555 28.6694 143.61 28.4766 143.648 28.2849C143.765 27.7101 143.857 27.1303 143.98 26.5569C144.06 26.1847 144.238 25.8572 144.544 25.6139C144.797 25.4126 145.094 25.3153 145.407 25.2724C145.618 25.2436 145.832 25.226 146.045 25.2252C147.183 25.2207 149.316 25.2231 149.316 25.2231V25.3112V26.5369C149.316 26.5369 149.327 27.6198 149.311 28.1608C149.297 28.624 149.162 29.0516 148.832 29.3959C148.542 29.6984 148.175 29.858 147.771 29.9277C147.538 29.9679 147.299 29.9884 147.062 29.9937C146.619 30.0037 146.176 29.9965 145.723 29.9965ZM147.789 26.0043C147.272 26.0043 146.764 25.9942 146.257 26.0078C145.894 26.0174 145.637 26.198 145.537 26.5617C145.499 26.6994 145.471 26.8403 145.445 26.9809C145.365 27.4029 145.288 27.8252 145.216 28.2142C145.555 28.5643 145.878 28.8984 146.186 29.217C146.447 29.217 146.688 29.2318 146.927 29.2136C147.283 29.1863 147.556 29.0127 147.684 28.6682C147.741 28.5137 147.782 28.3434 147.785 28.1796C147.797 27.4682 147.792 26.7564 147.794 26.0446C147.793 26.0317 147.791 26.0188 147.789 26.0043ZM139.816 29.2246C139.816 28.1369 139.816 27.0583 139.816 25.9619C139.367 25.9721 138.924 25.9664 138.483 25.9978C138.173 26.0198 137.922 26.1816 137.789 26.4759C137.727 26.6141 137.673 26.7692 137.67 26.9177C137.657 27.5614 137.664 28.2054 137.664 28.8647C137.804 28.9789 137.958 29.1054 138.104 29.2248C138.681 29.2246 139.245 29.2246 139.816 29.2246Z" fill="#002F56"/>
<path d="M164.83 22.7217C165.416 22.7217 166.347 22.7217 166.347 22.7217V23.0914V23.7146C166.347 23.7146 166.35 27.8235 166.35 29.878C166.35 29.9131 166.35 29.9483 166.35 29.99C165.843 29.99 165.34 29.99 164.83 29.99C164.83 27.5714 164.83 25.1506 164.83 22.7217Z" fill="#002F56"/>
<path d="M138.177 22.5225C138.478 22.8264 138.775 23.126 139.066 23.4203C139.375 23.1202 139.677 22.8269 139.976 22.5357C140.27 22.8302 140.568 23.1288 140.861 23.4224C140.565 23.7187 140.266 24.0184 139.972 24.3128C139.677 24.0259 139.377 23.7336 139.072 23.4369C138.78 23.7298 138.481 24.0297 138.179 24.3332C137.882 24.0289 137.591 23.7311 137.295 23.427C137.59 23.1246 137.881 22.8257 138.177 22.5225Z" fill="#002F56"/>
<path d="M120.533 25.185C120.691 25.185 120.845 25.1842 120.999 25.1852C121.615 25.1892 122.232 25.1814 122.847 25.2016C123.374 25.2188 123.882 25.331 124.341 25.6058C124.799 25.8796 125.097 26.2679 125.15 26.8105C125.202 27.3281 125.091 27.8164 124.84 28.272C124.647 28.6226 124.39 28.9198 124.077 29.1676C124.062 29.1789 124.048 29.1908 124.02 29.2137C125.087 29.2137 126.137 29.2137 127.197 29.2137C127.197 27.0516 127.197 24.8877 127.197 22.7181C127.787 22.7181 128.727 22.7181 128.727 22.7181V23.1967V23.6326C128.727 23.6326 128.728 26.784 128.729 28.3595C128.73 28.6427 128.712 28.9219 128.608 29.1891C128.605 29.1958 128.608 29.2044 128.608 29.2168C129.423 29.2168 130.238 29.2168 131.062 29.2168C131.062 27.0486 131.062 24.8845 131.062 22.7163C131.649 22.7163 132.585 22.7163 132.585 22.7163V22.9007V23.9457C132.585 23.9457 132.589 26.9346 132.59 28.4289C132.59 28.6464 132.576 28.8617 132.513 29.0711C132.361 29.5721 132.006 29.8423 131.509 29.9379C131.335 29.9713 131.155 29.9875 130.977 29.9877C123.612 29.9901 116.247 29.9898 108.882 29.9898C108.855 29.9898 108.829 29.9898 108.793 29.9898C108.793 29.9452 108.793 29.9083 108.793 29.8712C108.793 27.7568 108.791 23.528 108.791 23.528V23.2987V22.7975V22.7158C108.791 22.7158 109.731 22.7158 110.319 22.7158C110.319 24.8821 110.319 27.0466 110.319 29.2162C111.37 29.2162 112.411 29.2162 113.439 29.2162C113.076 28.8436 112.707 28.4654 112.334 28.0835C112.346 27.627 112.3 27.1656 112.408 26.7116C112.588 25.9482 113.081 25.5109 113.835 25.3634C114.07 25.3175 114.313 25.2967 114.552 25.295C115.585 25.2877 117.491 25.2917 117.491 25.2917V25.4021V26.5314C117.491 26.5314 117.495 27.625 117.496 28.1718C117.496 28.5206 117.51 28.8707 117.373 29.2136C118.426 29.2136 119.47 29.2136 120.52 29.2136C120.513 29.2029 120.509 29.1912 120.501 29.1839C120.092 28.819 119.865 28.3522 119.771 27.8228C119.703 27.4397 119.67 27.0507 119.622 26.6644C119.613 26.5948 119.606 26.5248 119.599 26.4533C119.911 26.0298 120.222 25.6077 120.533 25.185ZM122.42 29.2301C122.637 29.1078 122.821 28.9468 122.982 28.7584C123.434 28.2306 123.673 27.627 123.628 26.9253C123.608 26.6177 123.491 26.3532 123.237 26.1637C123.029 26.0083 122.789 25.9575 122.534 25.9575C122.072 25.9576 121.61 25.9573 121.147 25.9576C121.124 25.9576 121.101 25.9609 121.074 25.963C121.088 26.0943 121.1 26.218 121.114 26.3415C121.168 26.7928 121.211 27.2456 121.28 27.6944C121.343 28.1053 121.49 28.488 121.758 28.8152C121.931 29.0271 122.149 29.1683 122.42 29.2301ZM113.872 28.3607C114.164 28.6529 114.444 28.9336 114.725 29.2148C115.014 29.2148 115.309 29.2211 115.603 29.2124C115.78 29.2072 115.892 29.0976 115.935 28.9291C115.958 28.8385 115.968 28.7423 115.968 28.6486C115.971 27.8128 115.97 26.9768 115.969 26.141C115.969 26.1125 115.967 26.0839 115.966 26.0548C115.947 26.052 115.937 26.0489 115.926 26.0489C115.546 26.0514 115.164 26.0434 114.784 26.0593C114.31 26.0791 113.992 26.3539 113.914 26.8243C113.874 27.0703 113.879 27.3247 113.873 27.5755C113.867 27.8431 113.872 28.1109 113.872 28.3607Z" fill="#002F56"/>
<path d="M104.328 31.9681C104.246 31.7802 104.167 31.5974 104.08 31.3976C104.203 31.3976 104.314 31.4091 104.422 31.3957C104.983 31.3255 105.365 31.0099 105.604 30.5087C105.736 30.2311 105.796 29.9334 105.798 29.6279C105.803 28.6859 105.801 28.0486 105.802 27.1066C105.802 26.5057 105.802 25.9047 105.802 25.3039C105.802 25.2718 105.802 25.2396 105.802 25.2012C106.39 25.2012 107.324 25.2012 107.324 25.2012V25.4412C107.324 25.4412 107.322 26.0051 107.324 26.308C107.333 27.4936 107.33 28.3746 107.324 29.5602C107.322 30.0142 107.243 30.4561 107.013 30.8553C106.689 31.4169 106.189 31.7441 105.572 31.9046C105.165 32.0106 104.751 32.0275 104.328 31.9681Z" fill="#002F56"/>
<path d="M115.405 23.389C115.105 23.6807 114.804 23.9724 114.512 24.2569C114.218 23.9721 113.917 23.6814 113.615 23.3892C113.925 23.0902 114.227 22.7985 114.544 22.4927C114.811 22.7696 115.103 23.0725 115.388 23.3688C115.703 23.0632 115.999 22.7749 116.299 22.4834C116.588 22.7827 116.882 23.0873 117.166 23.3819C116.891 23.6666 116.597 23.971 116.31 24.2674C116.003 23.9693 115.701 23.6766 115.405 23.389Z" fill="#002F56"/>
<path d="M106.6 36.9627L105.849 35.8374H104.909V36.9627H104.279V33.5674H105.762C106.794 33.5674 107.225 33.9118 107.225 34.6732C107.225 35.2359 106.997 35.5852 106.518 35.7404L107.341 36.9627H106.6ZM104.909 35.294H105.796C106.353 35.294 106.571 35.1291 106.571 34.707C106.571 34.2848 106.353 34.1199 105.796 34.1199H104.909V35.294Z" fill="#002F56"/>
<path d="M110.594 34.1301H108.579V34.974H110.444V35.5125H108.579V36.4002H110.633V36.9627H107.949V33.5674H110.594L110.594 34.1301Z" fill="#002F56"/>
<path d="M113.72 36.2156H112.068L111.763 36.9627H111.051L112.48 33.5674H113.308L114.742 36.9627H114.025L113.72 36.2156ZM113.502 35.6918L112.892 34.2026L112.281 35.6918H113.502Z" fill="#002F56"/>
<path d="M115.985 36.3952H117.778V36.9627H115.355V33.5674H115.985V36.3952Z" fill="#002F56"/>
<path d="M122.25 34.1301H120.235V34.974H122.1V35.5125H120.235V36.4002H122.289V36.9627H119.605V33.5674H122.25L122.25 34.1301Z" fill="#002F56"/>
<path d="M125.328 34.3886C124.965 34.1945 124.519 34.0684 124.175 34.0684C123.812 34.0684 123.565 34.2042 123.565 34.4807C123.565 34.6603 123.662 34.7378 124.199 34.8834L124.568 34.9852C125.319 35.1939 125.667 35.3781 125.687 35.9651C125.687 36.6441 125.144 37.0128 124.287 37.0128C123.73 37.0128 123.163 36.8528 122.736 36.5618L123.027 36.0864C123.429 36.3242 123.928 36.4599 124.34 36.4599C124.752 36.4599 125.023 36.3145 125.023 35.9992C125.023 35.7664 124.892 35.6985 124.408 35.5772L124.025 35.4802C123.221 35.2766 122.901 35.0777 122.882 34.5247C122.882 34.1949 123.008 33.9475 123.255 33.7776C123.502 33.6079 123.826 33.5205 124.224 33.5205C124.713 33.5205 125.222 33.6563 125.604 33.8844L125.328 34.3886Z" fill="#002F56"/>
<path d="M128.89 34.1203H127.805V36.9629H127.175V34.1203H126.09V33.5674H128.89V34.1203Z" fill="#002F56"/>
<path d="M131.532 36.2156H129.88L129.575 36.9627H128.863L130.292 33.5674H131.121L132.555 36.9627H131.837L131.532 36.2156ZM131.314 35.6918L130.704 34.2026L130.094 35.6918H131.314Z" fill="#002F56"/>
<path d="M135.339 34.1203H134.254V36.9629H133.624V34.1203H132.539V33.5674H135.339V34.1203Z" fill="#002F56"/>
<path d="M138.588 34.1301H136.573V34.974H138.438V35.5125H136.573V36.4002H138.627V36.9627H135.943V33.5674H138.588V34.1301Z" fill="#002F56"/>
<path d="M143.099 34.4277C142.862 34.2142 142.561 34.1027 142.232 34.1027C141.593 34.1027 141.055 34.5878 141.055 35.267C141.055 35.9024 141.554 36.4214 142.198 36.4214C142.537 36.4214 142.823 36.3388 143.051 36.1691V35.5919H142.232V35.0826H143.647V36.4941C143.259 36.824 142.741 37.0132 142.198 37.0132C141.224 37.0325 140.367 36.2081 140.391 35.267C140.372 34.2435 141.268 33.5061 142.232 33.5207C142.712 33.5207 143.162 33.6906 143.511 34.0009L143.099 34.4277Z" fill="#002F56"/>
<path d="M147.166 34.1301H145.151V34.974H147.016V35.5125H145.151V36.4002H147.205V36.9627H144.521V33.5674H147.166V34.1301Z" fill="#002F56"/>
<path d="M150.961 33.5674V36.9627H150.297L148.505 34.5228V36.9627H147.885V33.5674H148.548L150.346 36.0073V33.5674H150.961Z" fill="#002F56"/>
<path d="M154.516 34.1301H152.501V34.974H154.366V35.5125H152.501V36.4002H154.555V36.9627H151.871V33.5674H154.516V34.1301Z" fill="#002F56"/>
<path d="M157.551 36.9627L156.8 35.8374H155.86V36.9627H155.23V33.5674H156.713C157.745 33.5674 158.176 33.9118 158.176 34.6732C158.176 35.2359 157.948 35.5852 157.469 35.7404L158.292 36.9627H157.551ZM155.86 35.294H156.747C157.304 35.294 157.522 35.1291 157.522 34.707C157.522 34.2848 157.304 34.1199 156.747 34.1199H155.86V35.294Z" fill="#002F56"/>
<path d="M161.343 36.2156H159.691L159.386 36.9627H158.674L160.103 33.5674H160.931L162.365 36.9627H161.648L161.343 36.2156ZM161.125 35.6918L160.515 34.2026L159.904 35.6918H161.125Z" fill="#002F56"/>
<path d="M163.612 36.3952H165.405V36.9627H162.982V33.5674H163.612V36.3952Z" fill="#002F56"/>
<path d="M169.599 36.2156H167.947L167.642 36.9627H166.93L168.359 33.5674H169.187L170.621 36.9627H169.904L169.599 36.2156ZM169.381 35.6918L168.771 34.2026L168.16 35.6918H169.381Z" fill="#002F56"/>
<path d="M174.129 35.4301C174.129 36.4439 173.587 37.0115 172.618 37.0115C171.649 37.0115 171.102 36.4391 171.102 35.4301V33.5674H171.731V35.4301C171.731 36.0704 172.056 36.4293 172.618 36.4293C173.18 36.4293 173.5 36.0704 173.5 35.4301V33.5674H174.129V35.4301Z" fill="#002F56"/>
<path d="M177.542 34.1203H176.457V36.9629H175.827V34.1203H174.742V33.5674H177.542V34.1203Z" fill="#002F56"/>
<path d="M181.225 36.9627H180.595V35.5366H178.778V36.9627H178.148V33.5674H178.778V34.9692H180.595V33.5674H181.225V36.9627Z" fill="#002F56"/>
<path d="M183.815 37.0134C182.842 37.0326 181.984 36.2082 182.008 35.2671C181.984 34.326 182.842 33.5014 183.815 33.5208C184.784 33.5014 185.632 34.326 185.613 35.2671C185.632 36.2082 184.784 37.0328 183.815 37.0134ZM183.815 36.4215C184.455 36.4215 184.954 35.9025 184.954 35.2671C184.954 34.6317 184.455 34.1127 183.815 34.1127C183.171 34.1127 182.672 34.6317 182.672 35.2671C182.672 35.9025 183.171 36.4215 183.815 36.4215Z" fill="#002F56"/>
<path d="M188.717 36.9627L187.966 35.8374H187.026V36.9627H186.396V33.5674H187.879C188.911 33.5674 189.342 33.9118 189.342 34.6732C189.342 35.2359 189.114 35.5852 188.635 35.7404L189.458 36.9627H188.717ZM187.026 35.294H187.913C188.47 35.294 188.688 35.1291 188.688 34.707C188.688 34.2848 188.47 34.1199 187.913 34.1199H187.026V35.294Z" fill="#002F56"/>
<path d="M190.695 36.9627H190.064V33.5674H190.695V36.9627Z" fill="#002F56"/>
<path d="M194.107 34.1203H193.022V36.9629H192.392V34.1203H191.307V33.5674H194.107V34.1203Z" fill="#002F56"/>
<path d="M197.929 33.5674L196.524 35.7599V36.9629H195.889V35.7647L194.484 33.5674H195.24L196.209 35.1002L197.183 33.5674H197.929Z" fill="#002F56"/>
<path d="M126.014 13.3602V11.2935H120.873V7.03789H127.978V4.93652H117.975V19.8375H129.51V17.7363H120.873V13.3602H126.014Z" fill="#002F56"/>
<path d="M146.816 13.3401L151.447 19.821H154.468V4.94434H147.391L143.525 12.9159L140.199 19.8394H143.347L146.627 13.076L146.816 13.3401ZM149.547 7.02347H151.632V15.6302L148.067 10.3332L149.547 7.02347Z" fill="#002F56"/>
<path d="M132.194 5.27062C131.196 5.64279 130.343 6.17347 129.658 6.84802C128.975 7.52085 128.447 8.34461 128.089 9.29656C127.727 10.2594 127.543 11.3485 127.543 12.5337C127.543 13.6376 127.725 14.6527 128.085 15.5507C128.442 16.442 128.961 17.2158 129.629 17.8507C130.298 18.4887 131.129 18.9936 132.098 19.3514C133.075 19.7121 134.206 19.8949 135.459 19.8949C136.295 19.8949 138.726 19.8611 139.895 19.8449L140.204 19.8408V10.8479H134.814V13.1743H137.706V17.504L137.387 17.6171C137.145 17.7036 136.995 17.702 136.277 17.6943L136.243 17.6939C136.124 17.6927 136.038 17.6917 135.977 17.6917C134.305 17.6917 132.884 17.1717 131.868 16.188C130.921 15.2721 130.441 13.9207 130.441 12.1712C130.441 11.1422 130.59 10.6622 130.835 9.9942C131.102 9.26624 131.489 8.65458 131.987 8.1761C132.485 7.69866 133.088 7.34252 133.783 7.11784C134.455 6.90057 135.217 6.7903 136.048 6.7903C137.333 6.7903 138.147 6.99155 139.302 7.41351L139.651 5.46325C138.501 4.97048 137.5 4.7041 135.671 4.7041C134.371 4.70427 133.201 4.89484 132.194 5.27062Z" fill="#002F56"/>
<path d="M110.231 14.4714L114.477 19.8375H117.972L113.541 14.4736L116.156 11.5632V8.23709C116.156 6.41709 114.677 4.93652 112.86 4.93652H104.936V19.8375H107.834V14.398H110.173L110.231 14.4714ZM107.747 12.159V6.75221H111.255C112.581 6.75221 113.542 7.77584 113.542 8.4659V10.6865L112.237 12.159H107.747Z" fill="#002F56"/>
<path d="M75.8906 25.1484L87.8423 37.1155V32.3455L80.6116 25.1484H75.8906Z" fill="#005257"/>
<path d="M89.0273 32.3455V37.1155L100.979 25.1484H96.258L89.0273 32.3455Z" fill="#005257"/>
<path d="M87.8404 12.5535V12.3013V9.2392V9.23213V7.57444L83.0378 2.79469V2.8052L78.317 2.7666L80.0161 4.46771L81.3879 5.84145L82.3906 6.84889L83.7626 8.21901L84.7685 9.22644L84.7742 9.23213H77.7306L77.7376 9.2392L74.3711 12.5535H87.8404Z" fill="#10CFC9"/>
<path d="M80.0175 21.5035L81.3894 20.1298L82.3956 19.1259L83.7639 17.7522L84.7701 16.7449L86.142 15.3712L87.8409 13.6699H83.1202L78.3466 18.4778H78.3573L78.3184 23.2048L80.0175 21.5035Z" fill="#00A887"/>
<path d="M99.1303 9.2392L99.1372 9.23213H92.3903L92.0927 9.23265L92.0989 9.22644L93.1051 8.21901L94.477 6.84889L95.4796 5.84145L96.8514 4.46771L98.5504 2.7666L93.8297 2.8052V2.79469L89.0273 7.57444V9.2392V12.3013V12.5535H102.497L99.1303 9.2392Z" fill="#10CFC9"/>
<path d="M92.034 16.7449L93.0401 17.7522L94.4084 19.1259L95.4146 20.1298L96.7866 21.5035L98.4856 23.2048L98.4469 18.4778H98.4574L93.6838 13.6699H88.9629L90.662 15.3712L92.034 16.7449Z" fill="#00A488"/>
<path d="M90.0671 16.7588H86.7943L84.875 18.7202H92.0035L90.0671 16.7588Z" fill="#00848D"/>
<path d="M90.0671 19.8809H86.7943L84.875 21.8423H92.0035L90.0671 19.8809Z" fill="#00848D"/>
<path d="M90.0671 22.9766H86.7943L84.875 24.938H92.0035L90.0671 22.9766Z" fill="#00848D"/>
<path d="M84.875 28.0474H92.0035L90.0671 26.0859H86.7943L84.875 28.0474Z" fill="#00848D"/>
<path d="M2.09922 15.0786C2.31449 15.2628 2.56727 15.4084 2.85017 15.5111C3.13323 15.6139 3.43144 15.6659 3.73636 15.6659C3.8298 15.6659 3.92135 15.6611 4.00842 15.6518C4.09514 15.6425 4.18187 15.6317 4.2686 15.6193L4.28753 15.6165L4.60036 14.9587L4.53756 14.9652C4.4233 14.9773 4.30439 14.9771 4.18394 14.9652C4.064 14.9531 3.94561 14.9258 3.83187 14.8839C3.71916 14.8424 3.6123 14.779 3.51421 14.6957C3.41544 14.6118 3.32923 14.5103 3.25782 14.3939C3.18572 14.2765 3.12945 14.1471 3.09056 14.0091C3.0515 13.8711 3.03171 13.7216 3.03171 13.5649C3.03171 13.1795 3.13495 12.8535 3.33869 12.5957C3.54192 12.3383 3.8773 12.1619 4.33536 12.0714L6.01587 11.733C6.17057 11.9321 6.36605 12.0916 6.59749 12.2074C6.83565 12.3266 7.13971 12.3871 7.50159 12.3871H8.16924H8.33272H9.75115H9.91445H11.3331H11.4964H12.9148H13.0783H14.4967H14.66H16.0784H16.2419H17.6603H17.8236H18.445C19.1748 12.3871 19.7082 12.1691 20.0312 11.7391L20.6782 12.3871H21.8864C22.5888 12.3871 23.1305 12.2269 23.4962 11.9107C23.8634 11.5935 24.0465 11.109 24.0403 10.4713V8.02741H20.9427C20.3272 8.02741 19.8595 8.14526 19.5522 8.37735C19.2441 8.6103 19.0404 8.98212 18.9466 9.48317L18.7155 10.7799C18.6672 11.0454 18.6006 11.2401 18.5176 11.3586C18.4376 11.473 18.3351 11.5289 18.2044 11.5289H17.8236H17.6603H16.2419H16.0784H14.66H14.4967H13.0783H12.9148H11.4964H11.3331H9.91445H9.75115H8.33272H8.16924H7.93642C7.82354 11.5289 7.72615 11.5154 7.64699 11.4891C7.57093 11.4637 7.50503 11.4148 7.45117 11.3438C7.39541 11.2704 7.34431 11.1648 7.29922 11.0299C7.25345 10.8926 7.20252 10.708 7.14745 10.4816L6.92547 9.56466C6.77009 8.91733 6.45278 8.40733 5.98266 8.04877C5.51272 7.69056 4.93127 7.50879 4.25432 7.50879C3.93133 7.50879 3.58201 7.57185 3.21617 7.69608C2.85189 7.81962 2.40776 8.02948 1.89651 8.31946L1.87845 8.32962V9.20542L1.93403 9.16682C2.09182 9.05741 2.26338 8.95369 2.44389 8.85875C2.62388 8.76416 2.81093 8.67887 2.99987 8.60582C3.18813 8.53276 3.3824 8.47418 3.57754 8.43145C3.77198 8.38889 3.9623 8.36735 4.1435 8.36735C4.4214 8.36735 4.66145 8.47866 4.8571 8.69817C5.05551 8.92095 5.20848 9.25556 5.31156 9.69216L5.52425 10.5997C5.55195 10.7218 5.58499 10.8378 5.6225 10.9448L3.71072 11.3259C3.40735 11.3879 3.11241 11.4805 2.83399 11.6012C2.55454 11.7225 2.30434 11.8755 2.08993 12.0559C1.87414 12.2377 1.7 12.4548 1.57249 12.7012C1.44395 12.9491 1.37891 13.2367 1.37891 13.5558C1.37891 13.8687 1.4455 14.1576 1.57714 14.4149C1.70843 14.6709 1.88395 14.8942 2.09922 15.0786ZM20.4079 10.6905L20.6082 9.5514C20.6559 9.3007 20.7316 9.12496 20.8336 9.02881C20.9341 8.93388 21.1143 8.88563 21.3689 8.88563H22.3973V10.5638C22.3973 11.213 22.1486 11.5287 21.6372 11.5287H21.254L20.4079 10.6905Z" fill="#002F56"/>
<path d="M5.15404 12.4736L4.25391 13.4044L5.15404 14.3253L6.0836 13.4044L5.15404 12.4736Z" fill="#002F56"/>
<path d="M27.8027 12.3829H29.2213H29.3846H30.803H30.9665H32.3849H32.5482H33.9667H34.1301H35.5486H35.7119H37.1305H37.2938H38.5257C39.5497 12.3829 40.069 11.916 40.069 10.995V8.10661H38.4347V11.5247H37.2938H37.1305H35.7119H35.5486H34.1301H33.9667H32.5482H32.3849H30.9665H30.803H29.3846H29.2213H27.8027H27.6394H26.7296V5.82812H25.0859V12.3831H27.6392L27.8027 12.3829Z" fill="#002F56"/>
<path d="M40.2264 6.4299L39.3064 5.50879L38.3965 6.4299L39.3064 7.35101L40.2264 6.4299Z" fill="#002F56"/>
<path d="M40.1113 13.7114L40.4028 14.3785L40.4224 14.3813C40.509 14.3935 40.5954 14.403 40.6794 14.4094C40.7645 14.4156 40.8509 14.4187 40.9363 14.4187C41.2095 14.4187 41.4819 14.3808 41.7461 14.3063C42.0109 14.2314 42.2621 14.108 42.4929 13.9395C42.7305 13.7641 42.9162 13.5465 43.0447 13.2925C43.1688 13.0468 43.2485 12.7403 43.2815 12.3811H44.4348H44.5982H46.0167H46.18H47.5984H47.7619H49.1803H49.3436H50.5755C51.5995 12.3811 52.1189 11.9141 52.1189 10.9932V8.10476H50.4845V11.5228H49.3436H49.1803H47.7619H47.5984H46.18H46.0167H44.5982H44.4348H43.303V8.00293H41.6595V12.114C41.6595 12.5434 41.5618 12.9107 41.3696 13.2059C41.2501 13.3849 41.0884 13.5241 40.8888 13.6195C40.6892 13.715 40.4484 13.7482 40.1724 13.7181L40.1113 13.7114Z" fill="#002F56"/>
<path d="M50.4744 12.8643L49.5645 13.795L50.4744 14.716L51.3941 13.795L50.4744 12.8643Z" fill="#002F56"/>
<path d="M3.52734 17.9885L4.43746 18.9096L5.30714 18.0388L6.16735 18.9096L7.08728 17.9885L6.16735 17.0674L5.30714 17.9382L4.43746 17.0674L3.52734 17.9885Z" fill="#002F56"/>
<path d="M2.13777 22.9286C2.38384 23.1157 2.69117 23.264 3.05115 23.3698C3.41011 23.4753 3.82739 23.5287 4.29149 23.5287H9.17452V19.1504H7.53101V22.6703H4.44876C3.93219 22.6703 3.56171 22.5345 3.34781 22.2669C3.13203 21.9968 3.02259 21.6148 3.02259 21.1311C3.02259 20.9476 3.03188 20.7586 3.05012 20.5694C3.06853 20.3796 3.09331 20.1935 3.12377 20.0162L3.131 19.9747H1.56234L1.5558 20.0019C1.48783 20.2858 1.44085 20.5507 1.41625 20.7891C1.39147 21.0271 1.37891 21.2294 1.37891 21.3903C1.37891 21.7033 1.44395 21.9937 1.57232 22.2535C1.70052 22.5137 1.89066 22.7408 2.13777 22.9286Z" fill="#002F56"/>
<path d="M11.8566 16.9707H10.2129V23.5257H11.8566V16.9707Z" fill="#002F56"/>
<path d="M22.941 19.4381C22.4651 19.0799 21.8743 18.8984 21.1852 18.8984C20.8622 18.8984 20.5129 18.9613 20.147 19.0856C19.7826 19.2093 19.3386 19.419 18.8274 19.7089L18.8093 19.7191V20.5437L18.8632 20.5112C19.187 20.3154 19.5325 20.1386 19.8901 19.9855C20.2449 19.8339 20.5905 19.7568 20.9169 19.7568C21.1081 19.7568 21.2774 19.7901 21.42 19.8556C21.5629 19.9212 21.6883 20.0134 21.7924 20.1293C21.8974 20.2465 21.9872 20.3869 22.0595 20.5463C22.1321 20.7071 22.1904 20.8869 22.2331 21.082L22.4551 21.9897C22.5176 22.2457 22.602 22.4738 22.7067 22.6683H18.4825H18.319H17.4187V21.3794C17.4187 21.062 17.3699 20.7634 17.2733 20.492C17.1761 20.2191 17.0221 19.9808 16.8158 19.7835C16.6096 19.5866 16.3455 19.4296 16.0308 19.3173C15.7169 19.2053 15.3347 19.1484 14.8949 19.1484H13.2312V19.9975H14.5156C14.7619 19.9975 14.9809 20.0416 15.1668 20.1285C15.35 20.2145 15.4989 20.3576 15.6088 20.5537C15.7193 20.7512 15.7754 21.0258 15.7754 21.3701V22.6683H12.8984V23.5267H18.3196H18.483H24.8384V22.8179L24.8043 22.8165C24.6596 22.8108 24.5396 22.7643 24.4472 22.6771C24.3421 22.5837 24.2693 22.4618 24.2314 22.315L24.116 21.8713L23.9031 20.9538C23.7407 20.3066 23.4172 19.7966 22.941 19.4381Z" fill="#002F56"/>
<path d="M28.6887 24.5226C28.44 24.7173 28.0723 24.8162 27.5958 24.8162H27.5403L27.8691 25.5262H27.8918C27.9099 25.5262 27.9398 25.5278 27.9818 25.5309C28.068 25.5371 28.1713 25.5336 28.2642 25.5402C28.3115 25.5433 28.3447 25.5448 28.3636 25.5448C28.7482 25.5448 29.0902 25.4911 29.3796 25.3853C29.6694 25.2791 29.9175 25.1334 30.1175 24.9523C30.3176 24.7705 30.4731 24.5514 30.5797 24.3007C30.6814 24.061 30.7407 23.8005 30.7565 23.5257H31.6587H31.8221H32.8136C33.85 23.5257 34.3753 23.0494 34.3753 22.11V16.9707H32.7318V22.6673H31.8221H31.6587H30.7583V19.166H28.0031C26.5923 19.166 25.877 19.8322 25.877 21.1467V21.7542L27.6358 23.5153L27.6463 23.5257H29.1032C29.0678 23.999 28.9286 24.3343 28.6887 24.5226ZM28.2117 22.6671L27.5203 21.9837V20.9705C27.5203 20.3336 27.781 20.024 28.3174 20.024H29.1144V22.6671H28.2117Z" fill="#002F56"/>
<path d="M37.0577 16.9707H35.4141V23.5257H37.0577V16.9707Z" fill="#002F56"/>
<path d="M40.4543 23.2615C40.4543 23.6906 40.3565 24.0582 40.1643 24.3533C40.0449 24.5323 39.8831 24.6715 39.6835 24.7672C39.4836 24.8626 39.2421 24.8957 38.9672 24.8657L38.9062 24.8592L39.1977 25.5263L39.2174 25.5291C39.3036 25.5413 39.39 25.551 39.4741 25.5572C39.5588 25.5632 39.6451 25.5665 39.731 25.5665C40.0043 25.5665 40.2767 25.5286 40.5408 25.4541C40.8056 25.3792 41.0569 25.2558 41.2875 25.0873C41.5631 24.8866 41.7694 24.6226 41.9007 24.3033C42.0313 23.9856 42.0976 23.5821 42.0976 23.1041V19.1504H40.4541L40.4543 23.2615Z" fill="#002F56"/>
<path d="M41.24 16.6406L40.3301 17.5712L41.24 18.492L42.1694 17.5712L41.24 16.6406Z" fill="#002F56"/>
<path d="M49.4121 17.5509L50.3124 18.4718L51.242 17.5509L50.3124 16.6201L49.4121 17.5509Z" fill="#002F56"/>
<path d="M52.5063 22.1371V19.2671H49.8066C48.4203 19.2671 47.7174 19.9148 47.7174 21.1922V21.7997L48.5831 22.6664H47.1038H46.9405H45.8087V19.1465H44.1652V23.2577C44.1652 23.6869 44.0674 24.0544 43.8752 24.3496C43.7558 24.5286 43.5941 24.6678 43.3945 24.7634C43.1947 24.8589 42.9531 24.892 42.6781 24.862L42.6172 24.8554L42.9087 25.5226L42.9283 25.5253C43.0145 25.5376 43.1009 25.5472 43.185 25.5534C43.2697 25.5595 43.3561 25.5627 43.442 25.5627C43.7152 25.5627 43.9876 25.5248 44.2517 25.4504C44.5166 25.3754 44.7678 25.2521 44.9986 25.0836C45.2362 24.908 45.4219 24.6904 45.5504 24.4364C45.6745 24.1907 45.7542 23.8842 45.7872 23.5251H46.9405H47.1038H50.9629C51.9871 23.525 52.5063 23.058 52.5063 22.1371ZM50.8626 20.1069V22.2851C50.8626 22.6664 50.7014 22.6664 50.6484 22.6664H50.0155L49.3609 22.011V21.0345C49.3609 20.4103 49.6125 20.1067 50.1302 20.1067L50.8626 20.1069Z" fill="#002F56"/>
<path d="M3.30074 27.791L2.39062 28.7121L3.30074 29.6332L4.17025 28.7624L5.03063 29.6332L5.95056 28.7121L5.03063 27.791L4.17025 28.6616L3.30074 27.791Z" fill="#002F56"/>
<path d="M14.5355 36.0251L13.666 35.1543L12.7559 36.0754L13.666 36.9965L14.5355 36.1257L15.3959 36.9965L16.3158 36.0754L15.3959 35.1543L14.5355 36.0251Z" fill="#002F56"/>
<path d="M13.6518 34.6674H14.8928C15.917 34.6674 16.4362 34.2004 16.4362 33.2793V30.3909H14.8018V33.809H13.6516H13.4974H12.0697H11.9064H10.4878H10.3245H8.90608H8.74261H7.32417H7.16087H6.26039V30.2891H3.49597C2.09131 30.2891 1.37891 30.9555 1.37891 32.2696V33.4628L2.85412 34.6672H7.1607H7.324H8.74243H8.90591H10.3243H10.4876H11.9062H12.0695H13.4973L13.6518 34.6674ZM4.61671 31.1475V33.809H3.34179L3.02242 33.5497V32.1032C3.02242 31.4602 3.28311 31.1476 3.81948 31.1476L4.61671 31.1475Z" fill="#002F56"/>
<path d="M17.882 34.4003C17.882 34.8295 17.7843 35.197 17.592 35.4922C17.4726 35.6712 17.3109 35.8104 17.1113 35.906C16.9115 36.0015 16.6699 36.0346 16.3949 36.0046L16.334 35.9979L16.6255 36.665L16.6451 36.6678C16.7313 36.6802 16.8177 36.6896 16.9018 36.6958C16.9865 36.702 17.0729 36.7051 17.1588 36.7051C17.432 36.7051 17.7044 36.6672 17.9685 36.5928C18.2334 36.5179 18.4846 36.3945 18.7152 36.226C18.9909 36.0252 19.1972 35.7615 19.3285 35.442C19.4591 35.1243 19.5253 34.7208 19.5253 34.2428V30.2891H17.8818L17.882 34.4003Z" fill="#002F56"/>
<path d="M34.7174 28.7623L35.5776 29.6329L36.5072 28.712L35.5776 27.791L34.7264 28.6525L33.8474 27.791L32.9473 28.712L33.8477 29.6331L34.7174 28.7623Z" fill="#002F56"/>
<path d="M48.4227 33.8061H47.5131H47.3496H45.8804C46.1444 33.5719 46.3559 33.3047 46.5099 33.0106C46.6783 32.6891 46.7637 32.3391 46.7637 31.9706C46.7637 31.4418 46.5374 31.0219 46.0912 30.723C45.6491 30.4271 45.0262 30.2769 44.2396 30.2769H42.4087L41.52 31.4696L41.6234 32.3729C41.6939 32.9677 41.8956 33.4493 42.2229 33.8061H40.7967H40.6332H39.2148H39.0515H37.6329H37.4696H36.5265C36.5731 33.6479 36.5968 33.4701 36.5968 33.2766V30.4065H33.8971C32.5109 30.4065 31.8079 31.0543 31.8079 32.3317V32.9393L32.6736 33.8061H31.1943H31.0308H29.6124H29.4491H28.0307H27.8672H26.4488H26.2855H24.867H24.7035H23.2851H23.1218H22.212V28.1094H20.5684V34.6645H23.1216H23.2849H24.7034H24.8668H26.2853H26.4486H27.867H28.0305H29.4489H29.6122H31.0307H31.1941H37.4693H37.6326H39.0512H39.2145H40.6329H40.7964H47.3491H47.5126H48.5039C49.5403 34.6645 50.0657 34.1883 50.0657 33.2489V28.1094H48.4222V33.8061H48.4227ZM45.1202 32.0261C45.1202 32.2072 45.0957 32.3895 45.0474 32.568C44.9988 32.747 44.9314 32.9174 44.8469 33.0745C44.7622 33.2317 44.6581 33.3773 44.5377 33.507C44.4208 33.6328 44.294 33.7384 44.1608 33.8214C44.0652 33.7915 43.9695 33.7434 43.8762 33.6779C43.7788 33.61 43.6885 33.5135 43.608 33.3912C43.5267 33.2677 43.455 33.1131 43.3946 32.9317C43.3338 32.7492 43.2877 32.5275 43.2574 32.272L43.1322 31.1351H44.2768C44.5368 31.1351 44.7445 31.214 44.8942 31.3698C45.0441 31.5259 45.1202 31.7468 45.1202 32.0261ZM34.9533 31.2464V33.4246C34.9533 33.8059 34.785 33.8059 34.7298 33.8059H34.1062L33.4516 33.1505V32.1743C33.4516 31.5498 33.7003 31.2464 34.2117 31.2464H34.9533Z" fill="#002F56"/>
<path d="M52.7472 28.1094H51.1035V34.6645H52.7472V28.1094Z" fill="#002F56"/>
<path d="M63.8834 2.75977H63.5723V37.2425H63.8834V2.75977Z" fill="#005257"/>
</svg>
