<svg width="112" height="52" viewBox="0 0 112 52" fill="none" xmlns="http://www.w3.org/2000/svg">
<g clip-path="url(#clip0_724_4777)">
<path d="M64.4277 33.9492V33.9718V41.2756C64.9001 41.2756 109.531 30.7446 109.531 30.7446C111.207 30.3483 111.725 29.9746 111.725 29.1253V21.4932C111.713 22.4444 110.364 23.1804 108.946 23.5088L64.4277 33.9492Z" fill="#009969"/>
<path d="M64.4277 44.6386V44.6613V51.965C64.9001 51.965 109.531 41.434 109.531 41.434C111.207 41.0377 111.725 40.664 111.725 39.8148V32.1826C111.713 33.1338 110.364 33.8698 108.946 34.1982L64.4277 44.6386Z" fill="#00594F"/>
<path d="M67.2509 19.6014L70.6252 20.3714C75.2368 19.2844 80.8495 17.9708 87.1482 16.4987L64.4277 11.3125V17.7896C64.4277 18.7295 65.1926 19.1371 67.2509 19.6014Z" fill="#C7C8C9"/>
<path d="M95.0891 14.6415L67.2509 8.28891C65.1926 7.82464 64.4277 7.41699 64.4277 6.47713V0L110.161 10.4404C109.689 10.9953 108.766 11.4256 107.799 11.6634H107.788L95.0891 14.6415Z" fill="#C7C8C9"/>
<path d="M63.841 23.3267L57.3398 32.261C57.9922 32.1138 109.529 19.9975 109.529 19.9975C111.205 19.6012 111.723 19.2275 111.723 18.3782V10.7461C111.712 11.6973 110.362 12.4333 108.945 12.7617L63.841 23.3267Z" fill="#4CC2BF"/>
<path d="M2.08178 14.0523V21.3787C2.08178 21.9109 2.00304 22.2619 1.83433 22.4658C1.66561 22.6583 1.42941 22.7602 1.09197 22.7602C0.788285 22.7602 0.428357 22.6583 0.0234375 22.4658V24.5154C0.788285 24.7758 1.44066 24.9004 1.9468 24.9004C2.53169 24.9004 3.03784 24.7758 3.454 24.5154C3.87017 24.2549 4.17386 23.8812 4.36507 23.3943C4.55628 22.9074 4.65751 22.1714 4.65751 21.1862V13.4521L2.08178 14.0523Z" fill="#54565B"/>
<path d="M10.4722 10.1572L7.89648 10.7687V18.0272C7.89648 19.0123 7.99771 19.7484 8.18893 20.2353C8.38014 20.7222 8.68383 21.0959 9.09999 21.3563C9.51616 21.6168 10.0111 21.7413 10.5847 21.7413L38.9628 21.73C39.4802 21.7074 39.9301 21.5828 40.3125 21.345C40.7287 21.0846 41.0324 20.7109 41.2236 20.224C41.4148 19.737 41.516 19.001 41.516 18.0158V14.1092L38.9403 14.7207V17.6648C38.9403 18.1857 38.8616 18.5481 38.6929 18.7519C38.5579 18.9217 38.3554 19.0123 38.0967 19.035H33.4851L33.4514 18.2763C33.4514 17.6082 33.3277 16.9514 33.0802 16.2267C32.8328 15.502 32.4166 14.8792 31.843 14.3357C31.2693 13.8034 30.5157 13.3731 29.5934 13.0674C28.6711 12.7617 27.5351 12.6031 26.1966 12.6031C25.6904 12.6031 25.2518 12.6145 24.9031 12.6258C24.5544 12.6371 24.8469 12.6711 24.5769 12.6937L24.3407 15.1849C24.6107 15.151 24.9368 15.1283 25.308 15.117C25.6792 15.1057 26.0954 15.0943 26.5453 15.0943C27.3439 15.0943 28.0187 15.1623 28.5699 15.3095C29.121 15.4567 29.5709 15.6832 29.9196 16.0002C30.2683 16.3173 30.527 16.7249 30.6732 17.2345C30.8194 17.7214 30.8982 18.3216 30.8982 19.035H11.3158C11.0571 19.0123 10.8659 18.9217 10.7197 18.7519C10.551 18.5594 10.4722 18.197 10.4722 17.6648V10.1572Z" fill="#54565B"/>
<path d="M46.3391 24.177C46.5079 24.177 46.7104 24.2449 46.8904 24.3129C47.0929 24.4148 47.2279 24.4828 47.3404 24.5507V23.3162C47.1379 23.2142 46.9241 23.1123 46.7554 23.0443C46.5529 22.9764 46.3841 22.9424 46.1704 22.9424C45.9341 22.9424 45.6866 22.9764 45.4841 23.0443C45.2478 23.1123 45.0678 23.2142 44.899 23.3501C44.764 23.4521 44.629 23.656 44.5278 23.8712C44.4265 24.109 44.3928 24.3582 44.3928 24.664C44.3928 24.732 44.3928 24.8339 44.4265 24.9698C44.4603 25.0718 44.494 25.2077 44.5278 25.2756H43.8077H43.7402V26.3743H47.2954V25.2417H45.8216C45.7541 25.1737 45.7203 25.0718 45.6866 24.9358C45.6528 24.7999 45.6528 24.732 45.6528 24.664C45.6528 24.4601 45.7203 24.3242 45.8553 24.2449C45.9903 24.177 46.1704 24.177 46.3391 24.177Z" fill="#54565B"/>
<path d="M35.6349 23.417C35.2411 23.417 34.9036 23.5529 34.6111 23.8474C34.3186 24.1419 34.1836 24.4817 34.1836 24.9121C34.1836 25.3085 34.3186 25.6483 34.6111 25.9428C34.8699 26.2373 35.2411 26.3732 35.6349 26.3732C36.0287 26.3732 36.3887 26.2033 36.6587 25.9428C36.9512 25.6483 37.0862 25.3085 37.0862 24.9121C37.0862 24.4817 36.9512 24.1532 36.6587 23.8474C36.355 23.5529 36.0287 23.417 35.6349 23.417Z" fill="#54565B"/>
<path d="M39.299 23.417C38.9052 23.417 38.5677 23.5529 38.2752 23.8474C37.9827 24.1419 37.8477 24.4817 37.8477 24.9121C37.8477 25.3085 37.9827 25.6483 38.2752 25.9428C38.5339 26.2373 38.9052 26.3732 39.299 26.3732C39.6927 26.3732 40.0303 26.2033 40.3228 25.9428C40.6153 25.6483 40.7503 25.3085 40.7503 24.9121C40.7503 24.4817 40.6153 24.1532 40.3228 23.8474C40.019 23.5529 39.6927 23.417 39.299 23.417Z" fill="#54565B"/>
<path d="M26.713 23.417C26.3193 23.417 25.9818 23.5529 25.6892 23.8474C25.3967 24.1419 25.2617 24.4817 25.2617 24.9121C25.2617 25.3085 25.3967 25.6483 25.6892 25.9428C25.948 26.2373 26.3193 26.3732 26.713 26.3732C27.1068 26.3732 27.4668 26.2033 27.7368 25.9428C28.0294 25.6483 28.1644 25.3085 28.1644 24.9121C28.1644 24.4817 28.0294 24.1532 27.7368 23.8474C27.4331 23.5529 27.1068 23.417 26.713 23.417Z" fill="#54565B"/>
<path d="M44.7422 10.1578V21.7305H47.3292V9.55762L44.7422 10.1578Z" fill="#54565B"/>
<path d="M1.99096 42.3387H8.40218V39.9494H2.56459V37.9451H7.73856V35.5445H2.56459V33.3817H8.40218V31.0264H1.99096C0.888678 31.0264 0.000104313 31.9209 0.000104313 33.0307V40.3231C-0.0111434 41.4441 0.888678 42.3387 1.99096 42.3387Z" fill="#54565B"/>
<path d="M46.9023 41.9197C46.0924 40.7987 45.2713 39.6776 44.439 38.5679C45.0126 38.2735 45.4963 37.8545 45.8675 37.2997C46.2949 36.6542 46.5198 35.8842 46.5198 35.0123C46.5198 34.4461 46.4186 33.9026 46.2274 33.4157C46.0362 32.9287 45.7662 32.4984 45.4176 32.1474C45.0689 31.7964 44.6527 31.5133 44.1578 31.3208C43.6741 31.1283 43.1343 31.0264 42.5606 31.0264H38.9276C38.1065 31.0264 37.4316 31.7058 37.4316 32.5324V42.3274H40.0074V38.8963H41.6271C42.0095 39.4512 42.3919 39.9947 42.7743 40.5269C43.1792 41.0931 43.6067 41.6706 44.0341 42.2255L44.1128 42.3274H47.2059L46.9023 41.9197ZM40.0074 33.393H42.5494C42.8531 33.393 43.1005 33.4496 43.2692 33.5515C43.4492 33.6648 43.5842 33.8007 43.6854 33.9592C43.7866 34.129 43.8541 34.3102 43.8879 34.4914C43.9216 34.6952 43.9441 34.8651 43.9441 35.001C43.9441 35.2614 43.8991 35.4992 43.8204 35.6804C43.7304 35.8729 43.6179 36.0427 43.4942 36.1673C43.3592 36.2919 43.2242 36.3825 43.0555 36.4504C42.8868 36.5183 42.7293 36.541 42.5719 36.541H40.0186V33.393H40.0074Z" fill="#54565B"/>
<path d="M17.1213 31.5699V37.9338C17.1213 38.1263 17.0988 38.3527 17.0538 38.6019C17.0201 38.8283 16.9301 39.0661 16.8176 39.2813C16.7051 39.4964 16.5364 39.6663 16.3227 39.8135C16.1203 39.9494 15.8278 40.0173 15.4679 40.0173C15.2542 40.0173 15.0742 39.9834 14.928 39.9267C14.7705 39.8588 14.6356 39.7795 14.5231 39.6889C14.4106 39.5984 14.3094 39.4851 14.2194 39.3606C14.1294 39.236 14.0619 39.1114 14.0169 38.9869L13.9157 38.7378L11.5762 39.7909L11.6886 40.0286C12.0148 40.7647 12.521 41.3535 13.1734 41.7725C13.8257 42.1915 14.6018 42.4066 15.4904 42.4066C16.1203 42.4066 16.6939 42.2934 17.2113 42.0896C17.7287 41.8744 18.1786 41.5687 18.5498 41.1723C18.921 40.776 19.2134 40.3004 19.4046 39.7456C19.6071 39.202 19.7083 38.5905 19.7083 37.9338V30.9697L17.1213 31.5699Z" fill="#54565B"/>
<path d="M28.5567 31.3093C28.4892 31.1507 28.3317 31.0488 28.163 31.0488C27.9943 31.0488 27.8256 31.1621 27.7694 31.3093L22.168 42.3385H24.9912L25.8122 40.6513H30.5138L31.3461 42.3385H34.1693L28.5567 31.3093ZM27.0495 38.3186L28.163 35.952L29.2653 38.3186H27.0495Z" fill="#54565B"/>
</g>
<defs>
<clipPath id="clip0_724_4777">
<rect width="111.724" height="51.9647" fill="white"/>
</clipPath>
</defs>
</svg>
