<svg width="225" height="40" viewBox="0 0 225 40" fill="none" xmlns="http://www.w3.org/2000/svg">
<path d="M10.2589 20.3879H6.95878C6.213 20.3879 5.62231 20.1998 5.19127 19.8235C4.75794 19.4473 4.54356 18.8645 4.54356 18.0753C4.54356 17.5889 4.60286 17.0842 4.72145 16.5634C4.84004 16.0426 4.97688 15.5126 5.13425 14.9712L2.16711 13.9433C1.95729 14.5766 1.76115 15.2052 1.57869 15.8315C1.39624 16.4578 1.30273 17.0934 1.30273 17.738C1.30273 18.2795 1.39852 18.8049 1.58782 19.3188C1.77711 19.8327 2.09184 20.2939 2.53201 20.7022C2.9699 21.1106 3.55147 21.4364 4.26988 21.6819C4.99057 21.9251 5.88687 22.0467 6.96106 22.0467H13.6024V5.38574H10.2612V20.3879H10.2589Z" fill="#002F56"/>
<path d="M21.5769 19.2224H39.9294C42.0641 19.2224 43.1315 18.2611 43.1315 16.3363V10.2886H37.4731C34.5653 10.2886 33.1102 11.633 33.1102 14.3219V15.586L35.0556 17.543H19.2963V5.38574H15.9551V19.2224H21.5746H21.5769ZM36.4514 13.9846C36.4514 12.615 37.0216 11.929 38.1619 11.929H39.7926V16.6529C39.7926 17.2448 39.6147 17.543 39.2612 17.543H37.8859L36.4514 16.0999V13.9846Z" fill="#002F56"/>
<path d="M40.4202 6.55151L38.5547 4.6748L36.7461 6.55151L38.5547 8.40986L40.4202 6.55151Z" fill="#002F56"/>
<path d="M23.0312 35.1245H25.7179L28.5185 29.3246L28.6782 29.5518L32.6328 35.1108H35.2123V21.9922H29.1708L23.0312 35.1268V35.1245ZM31.0113 24.041H32.7902V31.5134L29.7478 26.9707L31.0113 24.041Z" fill="#002F56"/>
<path d="M18.4029 24.1675H24.7887V21.9902H15.9785V35.1295H18.4029V30.0247H18.4097V27.8842H18.4029V24.1675Z" fill="#002F56"/>
<path d="M39.7762 32.9339V21.9902H37.3496V35.1295H45.1997V32.9339H39.7762Z" fill="#002F56"/>
<path d="M24.2754 27.1836H18.4277V29.3608H24.2754V27.1836Z" fill="#002F56"/>
<path d="M62.9405 31.5402V35.1628L52.5703 24.7285H56.1373L62.9405 31.5402Z" fill="#005257"/>
<path d="M63.6055 31.5402V35.1628L73.9779 24.7285H70.411L63.6055 31.5402Z" fill="#005257"/>
<path d="M70.3771 19.5098H73.976L63.6035 29.9441V26.3535L70.3771 19.5098Z" fill="#00848D"/>
<path d="M70.3771 18.8425H73.976L63.6035 8.4082V11.9987L70.3771 18.8425Z" fill="#00848D"/>
<path d="M58.5781 12.1949V8.57227L68.9483 19.0066H65.3814L58.5781 12.1949Z" fill="#00A488"/>
<path d="M57.9135 12.1949V8.57227L47.541 19.0066H51.108L57.9135 12.1949Z" fill="#00A488"/>
<path d="M51.1422 24.2253H47.541L57.9135 13.791V17.3815L51.1422 24.2253Z" fill="#10CFC9"/>
<path d="M51.1422 24.8926H47.541L57.9135 35.3269V31.7364L51.1422 24.8926Z" fill="#10CFC9"/>
<path d="M208.333 29.2835C208.062 29.4653 207.761 29.5222 207.449 29.5244C206.601 29.529 205.753 29.529 204.905 29.5244C204.639 29.5244 204.385 29.4585 204.168 29.2812C203.874 29.4767 203.547 29.5244 203.21 29.5244C201.276 29.5244 199.345 29.5244 197.412 29.5244C197.396 29.5244 197.383 29.5244 197.362 29.5244C196.863 29.1152 196.363 28.7038 195.863 28.2923C195.863 27.9581 195.863 27.6285 195.863 27.2966C195.863 26.9829 195.863 26.6715 195.931 26.3623C196.101 25.6167 196.573 25.187 197.308 25.0461C197.518 25.0051 197.733 24.9847 197.946 24.9847C198.95 24.9779 200.79 24.9824 200.79 24.9824V25.2598V26.0054C200.79 26.0054 200.795 27.7967 200.795 28.6924V28.7902H203.253V25.5712H204.686V26.4237C204.686 26.4237 204.686 27.6922 204.688 28.3264C204.688 28.3923 204.693 28.4605 204.704 28.5265C204.731 28.6924 204.811 28.7674 204.978 28.7879C205.03 28.7947 205.084 28.7993 205.138 28.7993C205.878 28.7993 206.617 28.7993 207.359 28.7993C207.377 28.7993 207.395 28.7993 207.424 28.7947V25.5689H208.853V26.6442C208.853 26.6442 208.856 27.7626 208.858 28.3219C208.858 28.3878 208.862 28.456 208.874 28.5219C208.899 28.6879 208.98 28.7652 209.145 28.7856C209.204 28.7924 209.263 28.797 209.321 28.797C210.149 28.797 210.974 28.797 211.802 28.797C211.822 28.797 211.84 28.797 211.867 28.7947C211.863 28.7811 211.861 28.7697 211.856 28.7629C211.632 28.4446 211.533 28.0832 211.515 27.7013C211.497 27.2852 211.497 26.4555 211.497 26.4555V25.7121H212.871V23.9253C212.899 23.9231 212.919 23.9208 212.937 23.9208C213.676 23.9208 214.418 23.9117 215.157 23.9253C215.827 23.9367 216.458 24.1004 217.005 24.5027C217.593 24.9347 217.923 25.5235 218.002 26.2509C218.024 26.451 218.022 26.6555 218.031 26.851C217.579 27.2557 217.138 27.6512 216.69 28.0491C216.835 28.2741 216.978 28.4924 217.19 28.6515C217.346 28.7697 217.529 28.797 217.719 28.797C217.934 28.797 218.147 28.7902 218.361 28.7902C218.698 28.7902 219.035 28.7947 219.372 28.797C219.397 28.797 219.422 28.797 219.458 28.797V22.6318H220.903V23.4457C220.903 23.4457 220.903 26.5101 220.903 28.0422C220.903 28.2491 220.892 28.4537 220.831 28.6515C220.688 29.1266 220.353 29.3835 219.885 29.4767C219.716 29.5085 219.542 29.5222 219.368 29.5244C218.63 29.529 217.891 29.5199 217.154 29.529C216.611 29.5358 216.159 29.3426 215.77 28.9743C215.754 28.9607 215.741 28.947 215.725 28.9311C215.72 28.9288 215.716 28.9266 215.705 28.9197C215.483 29.1198 215.259 29.3221 215.031 29.5267H214.952C213.027 29.5267 211.101 29.5267 209.177 29.5267C208.919 29.5267 208.668 29.4926 208.442 29.3539C208.408 29.3335 208.374 29.3085 208.336 29.2812L208.333 29.2835ZM199.352 25.7235C199.352 25.7235 199.336 25.7144 199.332 25.7144C198.932 25.719 198.529 25.7053 198.131 25.7303C197.729 25.7553 197.462 25.9963 197.362 26.3896C197.328 26.5214 197.31 26.6624 197.308 26.7988C197.301 27.3353 197.306 27.8718 197.306 28.4082C197.306 28.4196 197.306 28.4333 197.308 28.4469C197.453 28.5674 197.598 28.6856 197.733 28.7947H199.354V25.7235H199.352ZM215.205 28.2878C214.852 27.6649 214.502 27.0511 214.156 26.4396H212.946C212.946 26.46 212.944 26.476 212.944 26.4896C212.944 26.8965 212.944 27.3057 212.944 27.7126C212.944 27.8195 212.957 27.9286 212.975 28.0332C213.061 28.4969 213.348 28.7606 213.819 28.7879C214.086 28.8038 214.355 28.7902 214.635 28.7902C214.82 28.6265 215.015 28.4537 215.205 28.2855V28.2878ZM215.354 25.7144C215.664 26.2532 215.974 26.7897 216.286 27.3307C216.387 27.2421 216.482 27.1579 216.571 27.0829C216.571 26.8238 216.58 26.5737 216.568 26.3259C216.552 26.0304 216.489 25.7417 216.358 25.4734C216.139 25.0279 215.802 24.721 215.295 24.6687C214.974 24.6369 214.649 24.6551 214.325 24.6528C214.321 24.6528 214.316 24.6573 214.314 24.6596V25.7144H215.356H215.354Z" fill="#002F56"/>
<path d="M223.523 29.5241H222.092V22.6338H223.523V29.5241Z" fill="#002F56"/>
<path d="M205.066 23.0856V24.0131H204.347V23.4812C204.04 23.4016 203.832 23.5539 203.827 23.8586C203.825 24.0336 203.827 24.2064 203.827 24.3837C203.899 24.4519 203.974 24.5178 204.051 24.5905H205.276V25.0725H202.846V24.5905H203.352C203.235 24.486 203.133 24.395 203.047 24.3155C203.047 24.1086 203.031 23.9154 203.051 23.7244C203.088 23.3812 203.307 23.1629 203.646 23.1061C203.739 23.0902 203.834 23.0811 203.929 23.0811C204.309 23.0788 205.068 23.0811 205.068 23.0811V23.0856H205.066Z" fill="#002F56"/>
<path d="M199.503 22.4537C199.781 22.7334 200.063 23.0175 200.337 23.2926C200.059 23.5722 199.776 23.8564 199.5 24.1337C199.224 23.8655 198.942 23.5881 198.655 23.3085C198.381 23.5858 198.098 23.87 197.811 24.1587C197.529 23.8677 197.255 23.5858 196.975 23.2971C197.253 23.0107 197.529 22.7265 197.804 22.4424C198.089 22.7288 198.37 23.0107 198.646 23.288C198.937 23.0039 199.222 22.7265 199.503 22.4515V22.4537Z" fill="#002F56"/>
<path d="M206.24 31.138C206.532 30.8539 206.817 30.5788 207.093 30.3105C207.359 30.5788 207.64 30.8607 207.916 31.138C207.644 31.4108 207.362 31.6927 207.093 31.9655C206.815 31.695 206.53 31.4199 206.24 31.138Z" fill="#002F56"/>
<path d="M209.618 31.1426C209.346 31.4154 209.066 31.6972 208.792 31.97C208.512 31.6972 208.227 31.4222 207.938 31.1403C208.229 30.8561 208.514 30.5788 208.79 30.3105C209.057 30.5788 209.339 30.863 209.618 31.1426Z" fill="#002F56"/>
<path d="M178.987 22.6295H180.431V28.7924H183.326C183.317 28.7788 183.312 28.7674 183.303 28.7606C182.916 28.4151 182.704 27.9718 182.616 27.4694C182.552 27.1079 182.521 26.7419 182.476 26.3782C182.466 26.31 182.462 26.2418 182.453 26.1713C182.747 25.769 183.041 25.3689 183.335 24.9688C183.626 24.9688 183.916 24.9688 184.203 24.9688C184.644 24.971 185.087 24.9642 185.528 24.9847C186.021 25.0051 186.5 25.1097 186.93 25.3689C187.362 25.628 187.642 25.9963 187.692 26.5123C187.739 26.9965 187.638 27.4557 187.405 27.8831C187.222 28.2218 186.977 28.5083 186.677 28.7447C186.663 28.756 186.65 28.7674 186.622 28.7879H189.623V22.6295H191.066V23.4957C191.066 23.4957 191.066 26.5237 191.066 28.0377C191.066 28.2446 191.054 28.4492 190.995 28.6469C190.853 29.1243 190.516 29.3835 190.043 29.4744C189.883 29.504 189.72 29.5199 189.557 29.5199C186.059 29.5221 182.564 29.5199 179.066 29.5199H178.984V29.413C178.984 27.4057 178.984 23.3911 178.984 23.3911V22.625L178.987 22.6295ZM183.846 25.7076C183.846 25.7371 183.846 25.7621 183.85 25.7871C183.882 26.0872 183.911 26.3896 183.95 26.6896C183.988 26.9806 184.02 27.2761 184.083 27.5626C184.165 27.9263 184.321 28.2605 184.594 28.5264C184.741 28.6697 184.915 28.7606 185.114 28.8061C185.318 28.6901 185.492 28.5401 185.641 28.3628C186.071 27.8604 186.297 27.2875 186.254 26.6192C186.236 26.3327 186.127 26.0872 185.894 25.9076C185.695 25.753 185.465 25.7053 185.218 25.7053C184.784 25.7053 184.35 25.7053 183.916 25.7053C183.893 25.7053 183.871 25.7076 183.846 25.7098V25.7076Z" fill="#002F56"/>
<path d="M174.228 29.5272C173.977 29.2726 173.721 29.0135 173.464 28.752C173.412 28.8225 173.364 28.8884 173.312 28.9498C173.032 29.2794 172.663 29.4363 172.247 29.4954C172.098 29.5159 171.946 29.5272 171.797 29.5272C170.11 29.5272 168.424 29.5272 166.735 29.5272H166.664C166.165 29.1158 165.665 28.7066 165.156 28.2883C165.165 27.7541 165.159 27.2176 165.186 26.6833C165.206 26.2946 165.328 25.9286 165.581 25.6194C165.848 25.2944 166.203 25.1239 166.603 25.0489C166.814 25.0102 167.028 24.9875 167.241 24.9852C168.247 24.9784 170.095 24.9829 170.095 24.9829V25.3467V25.915C170.095 25.915 170.097 27.7677 170.097 28.6952V28.7998H170.18C170.474 28.7998 170.768 28.7998 171.06 28.7998C171.218 28.7998 171.377 28.7998 171.533 28.7998C171.799 28.7998 172.001 28.6816 172.107 28.4383C172.182 28.2678 172.231 28.086 172.267 27.9041C172.378 27.3585 172.464 26.8107 172.582 26.2651C172.656 25.9127 172.826 25.6013 173.113 25.3717C173.353 25.1807 173.633 25.0875 173.929 25.0489C174.128 25.0216 174.33 25.0057 174.531 25.0034C175.605 24.9988 177.62 25.0034 177.62 25.0034V26.2491C177.62 26.2491 177.631 27.2767 177.615 27.7882C177.601 28.2269 177.475 28.6316 177.163 28.9589C176.889 29.2453 176.543 29.3976 176.161 29.4636C175.942 29.5022 175.716 29.5204 175.492 29.5272C175.073 29.5363 174.655 29.5295 174.228 29.5295V29.5272ZM176.177 25.7422C175.689 25.7422 175.209 25.7331 174.73 25.7445C174.386 25.7536 174.144 25.9241 174.049 26.2696C174.013 26.3992 173.988 26.5333 173.963 26.6674C173.889 27.0675 173.816 27.4676 173.746 27.8359C174.065 28.1678 174.37 28.4838 174.662 28.7861C174.908 28.7861 175.137 28.7998 175.363 28.7839C175.7 28.7589 175.958 28.5929 176.077 28.2678C176.132 28.1223 176.17 27.9609 176.172 27.8041C176.184 27.1289 176.179 26.4537 176.181 25.7809C176.181 25.7695 176.179 25.7558 176.177 25.7422ZM168.65 28.7952V25.7013C168.227 25.7104 167.809 25.7058 167.392 25.7354C167.099 25.7558 166.861 25.9104 166.737 26.1878C166.678 26.3196 166.626 26.4651 166.624 26.6061C166.612 27.2153 166.619 27.8268 166.619 28.452C166.75 28.5611 166.897 28.6793 167.035 28.793H168.652L168.65 28.7952Z" fill="#002F56"/>
<path d="M192.264 22.6289H193.697V23.57C193.697 23.57 193.699 27.4665 193.699 29.4124C193.699 29.4465 193.699 29.4783 193.699 29.5192H192.264V22.6289Z" fill="#002F56"/>
<path d="M167.106 22.4385C167.391 22.7272 167.671 23.0113 167.945 23.2887C168.236 23.0045 168.521 22.7272 168.804 22.4498C169.082 22.7295 169.362 23.0113 169.638 23.291C169.358 23.5728 169.078 23.857 168.799 24.1343C168.521 23.8616 168.239 23.5842 167.949 23.3046C167.673 23.5819 167.391 23.8661 167.106 24.1548C166.825 23.8661 166.552 23.5842 166.271 23.2955C166.55 23.0091 166.825 22.7249 167.104 22.4385H167.106Z" fill="#002F56"/>
<path d="M150.447 24.9723C150.596 24.9723 150.741 24.9723 150.886 24.9723C151.467 24.9769 152.05 24.9678 152.631 24.9883C153.129 25.0042 153.608 25.111 154.042 25.3724C154.474 25.6316 154.755 25.9999 154.807 26.5136C154.854 27.0047 154.75 27.4661 154.513 27.8981C154.33 28.23 154.088 28.5118 153.791 28.7483C153.778 28.7596 153.764 28.771 153.737 28.7915H156.738V22.6331H158.183V23.4993C158.183 23.4993 158.183 26.4863 158.185 27.9799C158.185 28.2481 158.169 28.5141 158.069 28.7664C158.067 28.7733 158.069 28.7801 158.069 28.7937H160.387V22.6309H161.825V23.7971C161.825 23.7971 161.83 26.6296 161.83 28.0481C161.83 28.255 161.816 28.4573 161.757 28.6573C161.615 29.1324 161.278 29.3893 160.81 29.478C160.645 29.5098 160.475 29.5257 160.308 29.5257C153.355 29.5257 146.4 29.5257 139.447 29.5257H139.363V29.4143C139.363 27.4093 139.363 23.4015 139.363 23.4015V22.6309H140.806V28.7937H143.752C143.408 28.4414 143.06 28.0822 142.71 27.7207C142.721 27.2888 142.678 26.8501 142.78 26.4204C142.949 25.6975 143.415 25.2815 144.127 25.1428C144.349 25.0996 144.577 25.0792 144.804 25.0769C145.778 25.0701 147.578 25.0746 147.578 25.0746V25.1792V26.2499C147.578 26.2499 147.582 27.2865 147.582 27.8048C147.582 28.1345 147.596 28.4664 147.467 28.7915H150.438C150.438 28.7915 150.427 28.771 150.42 28.7642C150.033 28.4186 149.821 27.9753 149.73 27.4729C149.667 27.1092 149.636 26.741 149.588 26.375C149.579 26.309 149.574 26.2431 149.565 26.1749C149.859 25.7725 150.153 25.3724 150.447 24.9723ZM152.227 28.8074C152.433 28.6914 152.607 28.5391 152.758 28.3595C153.183 27.8594 153.412 27.2865 153.366 26.6227C153.348 26.3318 153.237 26.0794 152.998 25.8998C152.801 25.7521 152.575 25.7043 152.335 25.7043C151.899 25.7043 151.463 25.7043 151.026 25.7043C151.004 25.7043 150.983 25.7066 150.956 25.7089C150.97 25.8339 150.981 25.9499 150.994 26.0681C151.044 26.4954 151.085 26.9251 151.15 27.3502C151.209 27.7389 151.349 28.1027 151.603 28.4118C151.765 28.6119 151.971 28.746 152.227 28.8051V28.8074ZM144.157 27.9822C144.433 28.2595 144.697 28.5255 144.962 28.7915C145.235 28.7915 145.514 28.7983 145.792 28.7915C145.959 28.7869 146.065 28.6823 146.106 28.5232C146.129 28.4368 146.138 28.3459 146.138 28.2572C146.14 27.4639 146.138 26.6728 146.138 25.8794C146.138 25.8521 146.135 25.8248 146.133 25.7975C146.115 25.7953 146.106 25.793 146.097 25.793C145.737 25.793 145.378 25.7884 145.018 25.8021C144.571 25.8203 144.27 26.0817 144.198 26.5273C144.159 26.7614 144.164 27.0024 144.159 27.2388C144.152 27.4934 144.159 27.7457 144.159 27.9822H144.157Z" fill="#002F56"/>
<path d="M135.147 31.4061C135.07 31.2288 134.996 31.0537 134.912 30.8651C135.03 30.8651 135.134 30.8764 135.235 30.8651C135.765 30.7991 136.126 30.4991 136.35 30.0239C136.475 29.7602 136.531 29.4784 136.533 29.1896C136.538 28.2962 136.536 27.6916 136.538 26.8004C136.538 26.2298 136.538 25.6615 136.538 25.0909V24.9932H137.976V25.2205C137.976 25.2205 137.976 25.7547 137.976 26.0434C137.985 27.1664 137.98 28.003 137.976 29.126C137.976 29.5556 137.899 29.9762 137.682 30.3536C137.377 30.8855 136.904 31.197 136.323 31.3493C135.939 31.4493 135.547 31.4652 135.147 31.4106V31.4061Z" fill="#002F56"/>
<path d="M145.603 23.2724C145.32 23.5497 145.036 23.8248 144.76 24.0953C144.482 23.8248 144.199 23.5497 143.914 23.2724C144.206 22.9882 144.493 22.7132 144.791 22.4222C145.042 22.6836 145.318 22.9723 145.59 23.2519C145.886 22.9632 146.166 22.6882 146.449 22.4131C146.722 22.6972 146.998 22.986 147.267 23.2656C147.007 23.5361 146.729 23.8248 146.458 24.1044C146.168 23.8225 145.883 23.5452 145.603 23.2724Z" fill="#002F56"/>
<path d="M137.296 36.1389L136.586 35.0727H135.7V36.1389H135.105V32.9199H136.505C137.48 32.9199 137.887 33.2473 137.887 33.9679C137.887 34.5021 137.672 34.8318 137.22 34.9795L137.997 36.1389H137.299H137.296ZM135.7 34.5567H136.537C137.064 34.5567 137.269 34.3998 137.269 33.9997C137.269 33.5996 137.064 33.4428 136.537 33.4428H135.7V34.5567Z" fill="#002F56"/>
<path d="M141.065 33.4519H139.161V34.2521H140.922V34.7636H139.161V35.6047H141.101V36.1389H138.566V32.9199H141.063V33.4541L141.065 33.4519Z" fill="#002F56"/>
<path d="M144.017 35.4296H142.457L142.17 36.1389H141.498L142.848 32.9199H143.63L144.985 36.1389H144.309L144.021 35.4296H144.017ZM143.811 34.9341L143.235 33.5223L142.658 34.9341H143.811Z" fill="#002F56"/>
<path d="M146.159 35.6001H147.85V36.1389H145.564V32.9199H146.159V35.6001Z" fill="#002F56"/>
<path d="M152.071 33.4519H150.167V34.2521H151.928V34.7636H150.167V35.6047H152.107V36.1389H149.572V32.9199H152.069V33.4541L152.071 33.4519Z" fill="#002F56"/>
<path d="M154.98 33.6947C154.636 33.5105 154.215 33.3901 153.892 33.3901C153.548 33.3901 153.316 33.5196 153.316 33.7811C153.316 33.9516 153.406 34.0243 153.915 34.163L154.263 34.2585C154.973 34.4562 155.301 34.6313 155.319 35.1882C155.319 35.8316 154.806 36.1816 153.996 36.1816C153.469 36.1816 152.936 36.0293 152.533 35.7543L152.807 35.3042C153.187 35.5292 153.657 35.6588 154.046 35.6588C154.435 35.6588 154.69 35.5201 154.69 35.2223C154.69 35.0018 154.566 34.9382 154.109 34.8222L153.747 34.7313C152.988 34.5381 152.687 34.3494 152.669 33.8265C152.669 33.5128 152.789 33.2787 153.022 33.1173C153.254 32.9559 153.562 32.874 153.937 32.874C154.399 32.874 154.88 33.0036 155.242 33.2196L154.982 33.697L154.98 33.6947Z" fill="#002F56"/>
<path d="M158.339 33.4421H157.314V36.136H156.72V33.4421H155.695V32.917H158.339V33.4421Z" fill="#002F56"/>
<path d="M160.835 35.4296H159.275L158.988 36.1389H158.316L159.666 32.9199H160.449L161.803 36.1389H161.127L160.84 35.4296H160.835ZM160.63 34.9341L160.053 33.5223L159.476 34.9341H160.63Z" fill="#002F56"/>
<path d="M164.43 33.4421H163.406V36.136H162.811V33.4421H161.787V32.917H164.43V33.4421Z" fill="#002F56"/>
<path d="M167.499 33.4519H165.595V34.2521H167.356V34.7636H165.595V35.6047H167.535V36.1389H165V32.9199H167.496V33.4541L167.499 33.4519Z" fill="#002F56"/>
<path d="M171.757 33.7338C171.533 33.5315 171.249 33.4247 170.939 33.4247C170.335 33.4247 169.826 33.8839 169.826 34.5272C169.826 35.1296 170.297 35.6207 170.905 35.6207C171.226 35.6207 171.495 35.5434 171.71 35.382V34.8341H170.937V34.3522H172.273V35.6911C171.907 36.0048 171.418 36.1822 170.905 36.1822C169.985 36.2004 169.175 35.4183 169.198 34.5272C169.18 33.5565 170.025 32.8586 170.937 32.8723C171.389 32.8723 171.814 33.0337 172.144 33.3269L171.755 33.7316L171.757 33.7338Z" fill="#002F56"/>
<path d="M175.596 33.4519H173.692V34.2521H175.454V34.7636H173.692V35.6047H175.632V36.1389H173.098V32.9199H175.594V33.4541L175.596 33.4519Z" fill="#002F56"/>
<path d="M179.177 32.9199V36.1389H178.55L176.859 33.827V36.1389H176.273V32.9199H176.9L178.596 35.2318V32.9199H179.177Z" fill="#002F56"/>
<path d="M182.534 33.4519H180.63V34.2521H182.391V34.7636H180.63V35.6047H182.57V36.1389H180.035V32.9199H182.531V33.4541L182.534 33.4519Z" fill="#002F56"/>
<path d="M185.4 36.1389L184.69 35.0727H183.804V36.1389H183.209V32.9199H184.609C185.583 32.9199 185.99 33.2473 185.99 33.9679C185.99 34.5021 185.775 34.8318 185.323 34.9795L186.101 36.1389H185.402H185.4ZM183.804 34.5567H184.64C185.167 34.5567 185.373 34.3998 185.373 33.9997C185.373 33.5996 185.167 33.4428 184.64 33.4428H183.804V34.5567Z" fill="#002F56"/>
<path d="M188.982 35.4296H187.422L187.134 36.1389H186.463L187.813 32.9199H188.595L189.95 36.1389H189.273L188.986 35.4296H188.982ZM188.776 34.9341L188.199 33.5223L187.623 34.9341H188.776Z" fill="#002F56"/>
<path d="M191.12 35.6001H192.811V36.1389H190.525V32.9199H191.12V35.6001Z" fill="#002F56"/>
<path d="M196.779 35.4296H195.218L194.931 36.1389H194.26L195.61 32.9199H196.392L197.746 36.1389H197.07L196.783 35.4296H196.779ZM196.573 34.9341L195.996 33.5223L195.42 34.9341H196.573Z" fill="#002F56"/>
<path d="M201.051 34.6833C201.051 35.6449 200.538 36.1814 199.625 36.1814C198.711 36.1814 198.193 35.6381 198.193 34.6833V32.917H198.788V34.6833C198.788 35.2903 199.096 35.6313 199.625 35.6313C200.154 35.6313 200.457 35.2903 200.457 34.6833V32.917H201.051V34.6833Z" fill="#002F56"/>
<path d="M204.276 33.4421H203.252V36.136H202.657V33.4421H201.633V32.917H204.276V33.4421Z" fill="#002F56"/>
<path d="M207.751 36.1389H207.157V34.7863H205.44V36.1389H204.846V32.9199H205.44V34.2498H207.157V32.9199H207.751V36.1389Z" fill="#002F56"/>
<path d="M210.198 36.1842C209.278 36.2024 208.468 35.4204 208.491 34.5293C208.468 33.6382 209.278 32.8561 210.198 32.8743C211.114 32.8561 211.914 33.6382 211.894 34.5293C211.912 35.4204 211.111 36.2024 210.198 36.1842ZM210.198 35.6227C210.802 35.6227 211.272 35.1317 211.272 34.5293C211.272 33.9269 210.802 33.4358 210.198 33.4358C209.594 33.4358 209.119 33.9269 209.119 34.5293C209.119 35.1317 209.59 35.6227 210.198 35.6227Z" fill="#002F56"/>
<path d="M214.826 36.1389L214.116 35.0727H213.229V36.1389H212.635V32.9199H214.034C215.009 32.9199 215.416 33.2473 215.416 33.9679C215.416 34.5021 215.201 34.8318 214.749 34.9795L215.527 36.1389H214.828H214.826ZM213.229 34.5567H214.066C214.593 34.5567 214.799 34.3998 214.799 33.9997C214.799 33.5996 214.593 33.4428 214.066 33.4428H213.229V34.5567Z" fill="#002F56"/>
<path d="M216.69 36.1389H216.096V32.9199H216.69V36.1389Z" fill="#002F56"/>
<path d="M219.915 33.4421H218.89V36.136H218.296V33.4421H217.271V32.917H219.915V33.4421Z" fill="#002F56"/>
<path d="M223.523 32.9199L222.196 34.9977V36.1389H221.597V35.0022L220.27 32.9199H220.984L221.9 34.3725L222.82 32.9199H223.526H223.523Z" fill="#002F56"/>
<path d="M155.622 13.7621V11.8048H150.767V7.76972H157.476V5.77832H148.031V19.9045H158.923V17.9108H150.767V13.7621H155.622Z" fill="#002F56"/>
<path d="M175.265 13.741L179.638 19.8857H182.491V5.78223H175.81L172.16 13.3386L169.02 19.9016H171.991L175.088 13.4887L175.267 13.7387L175.265 13.741ZM177.845 7.75316H179.814V15.912L176.45 10.8903L177.847 7.75316H177.845Z" fill="#002F56"/>
<path d="M161.457 6.09411C160.515 6.44647 159.71 6.94887 159.063 7.58993C158.419 8.22872 157.919 9.00846 157.582 9.91095C157.241 10.8248 157.066 11.8569 157.066 12.9799C157.066 14.0256 157.238 14.9895 157.577 15.8397C157.914 16.6853 158.405 17.4173 159.036 18.0198C159.667 18.6244 160.451 19.1041 161.367 19.4428C162.29 19.7838 163.357 19.9589 164.539 19.9589C165.329 19.9589 167.624 19.927 168.727 19.9111L169.019 19.9066V11.3818H163.929V13.5869H166.66V17.6924L166.36 17.7992C166.131 17.8811 165.989 17.8788 165.31 17.872H165.279C165.166 17.872 165.084 17.8697 165.028 17.8697C163.45 17.8697 162.109 17.3764 161.148 16.4444C160.255 15.576 159.8 14.2938 159.8 12.6366C159.8 11.6614 159.94 11.2067 160.171 10.5725C160.422 9.8814 160.788 9.30171 161.259 8.84933C161.729 8.39695 162.299 8.05823 162.954 7.84681C163.59 7.63994 164.309 7.53537 165.093 7.53537C166.308 7.53537 167.076 7.72633 168.166 8.12643L168.496 6.27825C167.411 5.81222 166.466 5.55762 164.738 5.55762C163.511 5.55762 162.407 5.73721 161.455 6.09411H161.457Z" fill="#002F56"/>
<path d="M140.724 14.8169L144.733 19.9045H148.034L143.851 14.8192L146.32 12.0594V8.90636C146.32 7.18094 144.925 5.77832 143.209 5.77832H135.727V19.9045H138.463V14.7487H140.672L140.726 14.8192L140.724 14.8169ZM138.379 12.6232V7.49692H141.691C142.944 7.49692 143.851 8.46761 143.851 9.12232V11.2274L142.618 12.6232H138.379Z" fill="#002F56"/>
<path d="M108.299 24.9385L119.584 36.2844V31.7606L112.755 24.9385H108.299Z" fill="#005257"/>
<path d="M120.705 31.7606V36.2844L131.99 24.9385H127.534L120.705 31.7606Z" fill="#005257"/>
<path d="M119.584 12.995V12.7563V9.85336V9.84654V8.2757L115.048 3.74505V3.75415L110.592 3.71777L112.195 5.32953L113.49 6.63212L114.438 7.5869L115.733 8.88722L116.683 9.842L116.688 9.84654H110.038L110.044 9.85336L106.865 12.995H119.584Z" fill="#10CFC9"/>
<path d="M112.197 21.4802L113.493 20.1799L114.442 19.2274L115.734 17.9248L116.683 16.97L117.979 15.6674L119.584 14.0557H115.125L110.619 18.6136H110.63L110.592 23.0942L112.197 21.4802Z" fill="#00A887"/>
<path d="M130.245 9.85336L130.252 9.84654H123.882H123.599L123.606 9.842L124.556 8.88722L125.851 7.5869L126.799 6.63212L128.092 5.32953L129.698 3.71777L125.241 3.75415V3.74505L120.705 8.2757V9.85336V12.7563V12.995H133.424L130.245 9.85336Z" fill="#10CFC9"/>
<path d="M123.544 16.97L124.493 17.9248L125.784 19.2274L126.734 20.1799L128.03 21.4802L129.635 23.0942L129.599 18.6136H129.608L125.101 14.0557H120.643L122.248 15.6674L123.544 16.97Z" fill="#00A488"/>
<path d="M121.681 16.9844H118.59L116.779 18.8439H123.508L121.681 16.9844Z" fill="#00848D"/>
<path d="M121.681 19.9414H118.59L116.779 21.801H123.508L121.681 19.9414Z" fill="#00848D"/>
<path d="M121.681 22.8789H118.59L116.779 24.7385H123.508L121.681 22.8789Z" fill="#00848D"/>
<path d="M116.779 27.6867H123.508L121.681 25.8271H118.59L116.779 27.6867Z" fill="#00848D"/>
<path d="M90.4242 2.75977H90.041V37.2425H90.4242V2.75977Z" fill="#005257"/>
</svg>
