<svg width="270" height="294" viewBox="0 0 270 294" fill="none" xmlns="http://www.w3.org/2000/svg">
<path d="M161.461 -2.70927C182.748 2.99268 204.627 -9.6361 210.343 -30.9234C189.056 -36.6254 167.163 -23.9966 161.461 -2.70927Z" fill="white" fill-opacity="0.6"/>
<path d="M110.906 118.772C122.085 84.3631 157.817 64.3006 193 72.7057C180.583 83.5887 171.333 97.6113 166.236 113.309L151.312 159.221C139.866 194.446 103.134 214.818 67.2051 205.864C79.3129 199.092 88.422 188.012 92.702 174.806L110.906 118.758V118.772Z" fill="white" fill-opacity="0.6"/>
<path d="M235.814 301.798L198.815 237.697C185.454 214.551 156.789 205.189 132.334 215.987C143.794 221.929 149.384 226.744 156.367 238.838L184.806 288.128C195.112 305.994 217.962 312.118 235.814 301.798Z" fill="white" fill-opacity="0.6"/>
<path d="M216.613 233.125C217.768 255.13 236.549 272.039 258.554 270.884C257.4 248.879 238.619 231.97 216.613 233.125Z" fill="white" fill-opacity="0.6"/>
<path d="M172.332 158.582C209.923 161.791 242.994 133.929 246.204 96.3386C208.613 93.1287 175.542 120.991 172.332 158.582Z" fill="white" fill-opacity="0.6"/>
<path d="M153.098 192.646C163.727 193.434 174.16 196.053 183.902 200.389L230.715 221.24C245.723 227.928 263.307 221.17 269.995 206.162L208.315 178.694C188.9 170.049 166.092 175.807 153.098 192.646Z" fill="white" fill-opacity="0.6"/>
<path d="M20.0597 62.4785C-9.21041 41.2194 -17.2495 1.03814 1.61627 -29.8369C8.12072 -14.6739 18.6095 -1.5383 31.9704 8.16207L71.0253 36.5311C100.985 58.2971 109.01 99.5342 89.3983 130.944C86.7092 117.33 78.9658 105.25 67.7449 97.0985L20.0597 62.4785Z" fill="white" fill-opacity="0.6"/>
<path d="M232.726 0.245117L160.332 15.6334C134.188 21.1945 116.42 45.5511 119.137 72.1602C128.331 63.0934 134.638 59.2639 148.295 56.3637L203.963 44.5374C224.138 40.2574 237.02 20.4202 232.726 0.245117Z" fill="white" fill-opacity="0.6"/>
<path d="M76.8898 16.365C91.56 -18.3959 75.2707 -58.4504 40.524 -73.1206C25.8538 -38.3598 42.1431 1.69473 76.8898 16.365Z" fill="white" fill-opacity="0.6"/>
<path d="M103.349 45.1853C107.39 35.316 113.106 26.2211 120.244 18.2946L154.54 -19.7888C165.536 -31.9952 164.55 -50.8047 152.344 -61.8003L107.165 -11.6231C92.945 4.17348 91.3823 27.643 103.363 45.1994" fill="white" fill-opacity="0.6"/>
<path d="M-61.5566 131.491C-90.8267 152.765 -131.515 147.978 -155.055 120.51C-138.611 119.003 -122.884 113.09 -109.538 103.39L-70.4827 75.0208C-40.5227 53.2548 1.16492 58.3655 24.9864 86.7204C11.2173 85.0732 -2.67862 88.6915 -13.8995 96.8572L-61.5707 131.505L-61.5566 131.491Z" fill="white" fill-opacity="0.6"/>
<path d="M85.4514 222.581C121.634 222.581 151.749 250.359 154.635 286.429C140.458 277.982 124.253 273.519 107.738 273.519H59.4617C22.4342 273.519 -8.3001 244.882 -10.8906 207.939C-0.71157 217.358 12.6493 222.595 26.517 222.595H85.4373L85.4514 222.581Z" fill="white" fill-opacity="0.6"/>
<path d="M-50.0334 397.933L-0.517902 342.941C17.3764 323.076 17.4186 292.919 -0.40527 272.997C-2.51711 285.738 -5.37513 292.539 -14.7094 302.915L-52.7929 345.194C-66.5902 360.526 -65.3513 384.136 -50.0334 397.933Z" fill="white" fill-opacity="0.6"/>
<path d="M66.5742 293.283C75.1342 330.029 111.852 352.865 148.598 344.305C140.038 307.559 103.32 284.723 66.5742 293.283Z" fill="white" fill-opacity="0.6"/>
<path d="M28.2176 285.529C30.7518 295.891 31.4839 306.605 30.3576 317.22L24.9935 368.186C23.2759 384.532 35.1303 399.16 51.476 400.877L58.5295 333.721C60.754 312.574 48.2237 292.667 28.2035 285.515" fill="white" fill-opacity="0.6"/>
</svg>
