<svg width="19" height="19" viewBox="0 0 19 19" fill="none" xmlns="http://www.w3.org/2000/svg">
<mask id="mask0_10_27873" style="mask-type:luminance" maskUnits="userSpaceOnUse" x="0" y="0" width="19" height="19">
<path d="M18.9013 0H0.451172V18.4502H18.9013V0Z" fill="white"/>
</mask>
<g mask="url(#mask0_10_27873)">
<path d="M17.5395 0H1.81302C1.45209 0 1.10538 0.143494 0.850154 0.398915C0.594543 0.654335 0.451172 1.00076 0.451172 1.36198V17.0882C0.451172 17.4494 0.594543 17.7958 0.850154 18.0513C1.10538 18.3067 1.45209 18.4502 1.81302 18.4502H17.5395C17.9004 18.4502 18.2471 18.3067 18.5023 18.0513C18.758 17.7958 18.9013 17.4494 18.9013 17.0882V1.36198C18.9013 1.00076 18.758 0.654335 18.5023 0.398915C18.2471 0.143494 17.9004 0 17.5395 0ZM5.95048 15.7172H3.17641V6.90601H5.95048V15.7172ZM4.56133 5.68496C4.24691 5.68319 3.93979 5.58825 3.6788 5.41212C3.41819 5.236 3.21562 4.98658 3.09646 4.69533C2.9773 4.40409 2.94694 4.0841 3.0096 3.77571C3.07225 3.46733 3.22484 3.1844 3.44778 2.96262C3.67111 2.74084 3.95517 2.59014 4.26382 2.52956C4.57248 2.46898 4.89228 2.50122 5.18287 2.62222C5.47346 2.74321 5.72139 2.94754 5.89589 3.20941C6.0704 3.47129 6.16341 3.77897 6.16303 4.09363C6.1661 4.30431 6.12652 4.51341 6.04696 4.70848C5.96739 4.90355 5.84938 5.08064 5.69986 5.22912C5.55033 5.37765 5.37276 5.49453 5.17711 5.57283C4.98146 5.65113 4.77197 5.68926 4.56133 5.68496ZM16.1749 15.7249H13.402V10.9112C13.402 9.49157 12.7986 9.05338 12.0198 9.05338C11.1972 9.05338 10.39 9.67353 10.39 10.9471V15.7249H7.61599V6.91239H10.2836V8.13344H10.3193C10.5872 7.59147 11.5251 6.66512 12.9561 6.66512C14.504 6.66512 16.1761 7.58378 16.1761 10.2744L16.1749 15.7249Z" fill="white"/>
</g>
</svg>
