<svg width="79" height="38" viewBox="0 0 79 38" fill="none" xmlns="http://www.w3.org/2000/svg">
<path d="M44.0684 29.2233V25.7944H44.3636V29.2233H44.0684Z" fill="white"/>
<path d="M46.6445 29.224V26.7938H46.9301V27.2447C47.1077 26.926 47.4361 26.7256 47.7859 26.7256C48.2288 26.7256 48.6417 26.9611 48.6417 27.5729V29.224H48.3561V27.6028C48.3561 27.186 48.0758 26.9707 47.7174 26.9707C47.3142 26.9707 46.9312 27.348 46.9312 27.8479V29.224H46.6456H46.6445Z" fill="white"/>
<path d="M50.8613 29.224V26.7938H51.1469V27.2447C51.3245 26.926 51.6529 26.7256 52.0027 26.7256C52.4456 26.7256 52.8585 26.9611 52.8585 27.5729V29.224H52.5729V27.6028C52.5729 27.186 52.2926 26.9707 51.9332 26.9707C51.5299 26.9707 51.1469 27.348 51.1469 27.8479V29.224H50.8613Z" fill="white"/>
<path d="M54.877 28.0089C54.877 27.1956 55.4621 26.7256 56.1253 26.7256C56.7885 26.7256 57.3736 27.1956 57.3736 28.0089C57.3736 28.8221 56.7885 29.2922 56.1253 29.2922C55.4621 29.2922 54.877 28.8221 54.877 28.0089ZM57.0891 28.0089C57.0891 27.4067 56.6762 26.9707 56.1253 26.9707C55.5744 26.9707 55.1615 27.4067 55.1615 28.0089C55.1615 28.6111 55.5744 29.047 56.1253 29.047C56.6762 29.047 57.0891 28.6111 57.0891 28.0089Z" fill="white"/>
<path d="M59.9793 29.2231L59.0059 26.793H59.3161L60.1323 28.9087L60.9484 26.793H61.2587L60.2852 29.2231H59.9804H59.9793Z" fill="white"/>
<path d="M62.9503 28.5529C62.9503 28.0871 63.329 27.8473 63.7611 27.7791L64.6308 27.6373V27.52C64.6308 27.1577 64.3901 26.9818 63.9965 26.9818C63.5643 26.9818 63.3429 27.2067 63.3429 27.4369C63.3429 27.4614 63.3429 27.471 63.3525 27.5105L63.1214 27.5893C63.1022 27.5403 63.0872 27.4668 63.0872 27.4028C63.0872 27.0255 63.4702 26.7271 63.9965 26.7271C64.5912 26.7271 64.9153 27.0255 64.9153 27.4913V28.6179C64.9153 28.8971 64.9453 29.0293 65.0629 29.2254H64.7773C64.7035 29.137 64.6201 28.9654 64.6201 28.701C64.5067 29.0389 64.128 29.2936 63.76 29.2936C63.2584 29.2936 62.9492 28.9803 62.9492 28.5539L62.9503 28.5529ZM64.6319 28.0039V27.8814L63.8103 28.0189C63.4466 28.0775 63.2348 28.2736 63.2348 28.5475C63.2348 28.8215 63.4509 29.0272 63.7857 29.0272C64.3409 29.0272 64.6319 28.474 64.6319 28.0029V28.0039Z" fill="white"/>
<path d="M67.2306 28.6403V27.0096H66.8027V26.7943H67.2306V26.1377H67.5162V26.7943H68.1206V27.0096H67.5162V28.6553C67.5162 28.9153 67.6296 29.0475 67.8649 29.0475C67.9195 29.0475 67.9976 29.0326 68.0468 29.0176L68.0714 29.2532C67.9976 29.2777 67.9291 29.2926 67.8061 29.2926C67.4916 29.2926 67.2306 29.0923 67.2306 28.6414V28.6403Z" fill="white"/>
<path d="M70.1055 26.3336V25.9414H70.4692V26.3336H70.1055ZM70.145 29.2232V26.793H70.4307V29.2232H70.145Z" fill="white"/>
<path d="M72.4512 28.0089C72.4512 27.1956 73.0363 26.7256 73.6995 26.7256C74.3627 26.7256 74.9479 27.1956 74.9479 28.0089C74.9479 28.8221 74.3627 29.2922 73.6995 29.2922C73.0363 29.2922 72.4512 28.8221 72.4512 28.0089ZM74.6633 28.0089C74.6633 27.4067 74.2504 26.9707 73.6995 26.9707C73.1486 26.9707 72.7357 27.4067 72.7357 28.0089C72.7357 28.6111 73.1486 29.047 73.6995 29.047C74.2504 29.047 74.6633 28.6111 74.6633 28.0089Z" fill="white"/>
<path d="M77.0039 29.224V26.7938H77.2895V27.2447C77.4671 26.926 77.7955 26.7256 78.1453 26.7256C78.5881 26.7256 79.001 26.9611 79.001 27.5729V29.224H78.7154V27.6028C78.7154 27.186 78.4352 26.9707 78.0758 26.9707C77.6725 26.9707 77.2895 27.348 77.2895 27.8479V29.224H77.0039Z" fill="white"/>
<path d="M58.6217 19.8268V23.8685H56.6973V14.0957H58.6217V18.1225H64.5821V14.0957H66.5064V23.8685H64.5767V19.8268H58.6217Z" fill="white"/>
<path d="M51.6679 14.0957V20.4674L45.5161 14.748C45.0646 14.3281 44.4656 14.0957 43.8484 14.0957H42.4941L43.8484 15.3172V23.8685H45.7728V17.6301L52.5643 23.8685H53.5912V14.0957H51.6679Z" fill="white"/>
<path d="M77.9313 21.2184C77.1247 21.8408 76.0454 22.2235 74.75 22.2267C72.5293 22.232 71.1023 20.8847 71.1023 18.9694C71.1023 17.0541 72.5293 15.7175 74.7607 15.7175C76.0058 15.7175 77.1247 16.0841 77.9259 16.7226L78.8587 15.2133C77.7772 14.4107 76.3545 13.9492 74.7082 13.9492C71.3558 13.9492 69.1426 16.018 69.1426 18.9694C69.1426 21.9208 71.3665 24.0162 74.7189 24.0162C76.5 24.0162 77.7344 23.6037 78.8705 22.7372L77.9313 21.2194V21.2184Z" fill="white"/>
<path d="M30.707 6.68249C32.3244 7.11417 33.9867 6.15809 34.421 4.54652C32.8037 4.11485 31.1403 5.07092 30.707 6.68249Z" fill="white"/>
<path d="M12.37 5.13381C13.2814 3.73434 12.8824 1.86377 11.4778 0.95459C10.5654 2.35406 10.9654 4.22464 12.37 5.13381Z" fill="white"/>
<path d="M26.8672 15.8796C27.7166 13.2746 30.4315 11.7558 33.1047 12.3921C32.1612 13.216 31.4584 14.2776 31.0712 15.466L29.9373 18.9418C29.0676 21.6086 26.2768 23.1509 23.5469 22.473C24.4668 21.9603 25.1589 21.1215 25.4841 20.1217L26.8672 15.8785V15.8796Z" fill="white"/>
<path d="M36.3565 29.7356L33.5453 24.8828C32.5301 23.1305 30.3522 22.4217 28.4941 23.2392C29.3649 23.689 29.7896 24.0535 30.3201 24.9691L32.4809 28.7006C33.264 30.0532 35.0001 30.5169 36.3565 29.7356Z" fill="white"/>
<path d="M34.8984 24.536C34.9862 26.2019 36.4131 27.482 38.0851 27.3946C37.9974 25.7287 36.5704 24.4486 34.8984 24.536Z" fill="white"/>
<path d="M31.5332 18.8919C34.3893 19.1349 36.902 17.0255 37.1459 14.1797C34.2898 13.9367 31.7771 16.046 31.5332 18.8919Z" fill="white"/>
<path d="M30.0723 21.4708C30.8799 21.5305 31.6725 21.7288 32.4128 22.057L35.9695 23.6356C37.1098 24.1419 38.4459 23.6303 38.954 22.494L34.2676 20.4146C32.7925 19.7601 31.0596 20.1961 30.0723 21.4708Z" fill="white"/>
<path d="M19.9639 11.6168C17.74 10.0073 17.1292 6.96535 18.5626 4.62793C19.0568 5.77586 19.8537 6.7703 20.8689 7.50468L23.8362 9.65238C26.1126 11.3002 26.7223 14.4221 25.2322 16.8C25.0279 15.7693 24.4395 14.8548 23.587 14.2377L19.9639 11.6168Z" fill="white"/>
<path d="M36.1219 6.90576L30.6215 8.07074C28.635 8.49176 27.2851 10.3357 27.4915 12.3502C28.19 11.6637 28.6693 11.3738 29.7069 11.1543L33.9365 10.2589C35.4694 9.93493 36.4482 8.43313 36.1219 6.90576Z" fill="white"/>
<path d="M24.2822 8.12712C25.3968 5.49552 24.1592 2.46316 21.5191 1.35254C20.4045 3.98414 21.6422 7.0165 24.2822 8.12712Z" fill="white"/>
<path d="M26.2924 10.307C26.5995 9.5598 27.0338 8.87125 27.5761 8.27118L30.1819 5.38803C31.0173 4.46394 30.9425 3.03995 30.015 2.20752L26.5823 6.00623C25.5019 7.20212 25.3832 8.97891 26.2935 10.308" fill="white"/>
<path d="M13.7621 16.8424C11.5382 18.4529 8.44675 18.0905 6.6582 16.0111C7.90762 15.897 9.10248 15.4493 10.1166 14.715L13.0839 12.5673C15.3602 10.9195 18.5276 11.3064 20.3376 13.453C19.2914 13.3283 18.2356 13.6022 17.3831 14.2204L13.761 16.8435L13.7621 16.8424Z" fill="white"/>
<path d="M14.2578 0.0732422L13.6706 5.64554C13.4577 7.65788 14.8023 9.50714 16.7877 9.93455C16.348 9.06054 16.2197 8.51696 16.3309 7.46602L16.7834 3.18128C16.9471 1.62833 15.8164 0.237384 14.2578 0.074308" fill="white"/>
<path d="M11.7653 11.6712C9.59808 9.80173 6.3205 10.0373 4.44531 12.1967C6.61253 14.0662 9.89011 13.8307 11.7653 11.6712Z" fill="white"/>
<path d="M14.4686 10.4389C13.8503 9.91667 13.3262 9.29315 12.9218 8.59394L10.975 5.23436C10.3513 4.15678 8.96819 3.788 7.88672 4.41046L10.4519 8.83802C11.2595 10.2311 12.9186 10.8941 14.4686 10.4411" fill="white"/>
<path d="M16.8334 24.3329C17.6838 26.9379 16.382 29.756 13.8436 30.808C14.1206 29.5897 14.0629 28.3182 13.6756 27.1297L12.5428 23.654C11.6731 20.9883 13.021 18.1051 15.63 17.0542C15.1882 18.0071 15.1229 19.0921 15.4492 20.0908L16.8334 24.3329Z" fill="white"/>
<path d="M0.982422 18.6803L6.11914 20.9591C7.97508 21.7819 10.1551 21.0795 11.1756 19.3304C10.2065 19.4764 9.64702 19.4306 8.67894 19L4.72853 17.2467C3.29726 16.6114 1.61997 17.2531 0.982422 18.6792" fill="white"/>
<path d="M5.22975 22.0322C4.1761 20.735 2.26667 20.5357 0.964844 21.5856C2.0185 22.8827 3.92792 23.082 5.22975 22.0322Z" fill="white"/>
<path d="M11.28 24.6274C8.82606 26.1037 8.03769 29.282 9.51923 31.726C11.9731 30.2498 12.7615 27.0715 11.28 24.6274Z" fill="white"/>
<path d="M10.9389 21.6851C10.25 22.1104 9.49262 22.4131 8.69996 22.5805L4.89075 23.3873C3.66914 23.6463 2.8904 24.8422 3.14927 26.0584L8.16725 24.9957C9.7472 24.661 10.8918 23.2935 10.9378 21.6841" fill="white"/>
<path d="M24.9313 23.7369C27.6805 23.7369 29.9686 25.8398 30.1878 28.5706C29.1107 27.9311 27.8794 27.5932 26.6247 27.5932H22.9566C20.1433 27.5932 17.8082 25.4252 17.6113 22.6284C18.3847 23.3415 19.3999 23.738 20.4535 23.738H24.9302L24.9313 23.7369Z" fill="white"/>
<path d="M14.6375 37.0126L18.3997 32.8494C19.7593 31.3455 19.7625 29.0624 18.4082 27.5542C18.2478 28.5188 18.0306 29.0336 17.3214 29.8191L14.4279 33.0199C13.3795 34.1806 13.4737 35.9681 14.6375 37.0126Z" fill="white"/>
<path d="M19.1494 34.0234C17.5865 34.6214 16.8046 36.3683 17.4058 37.9266C18.9686 37.3287 19.7495 35.5807 19.1494 34.0234Z" fill="white"/>
<path d="M23.498 29.0902C24.1484 31.8721 26.9382 33.6009 29.7301 32.9528C29.0798 30.171 26.29 28.4421 23.498 29.0902Z" fill="white"/>
<path d="M20.5837 28.5025C20.7762 29.287 20.8319 30.0981 20.7463 30.9018L20.3387 34.7602C20.2082 35.9976 21.1089 37.1051 22.3509 37.2351L22.8868 32.151C23.0558 30.55 22.1038 29.0429 20.5826 28.5015" fill="white"/>
</svg>
